<svg width="107" height="114" viewBox="0 0 107 114" fill="none" xmlns="http://www.w3.org/2000/svg">
<rect x="3" y="98" width="97" height="16" rx="3" fill="#FFCC00"/>
<path d="M13.808 109.09C13.286 109.09 12.848 109.012 12.494 108.856C12.14 108.694 11.867 108.487 11.675 108.235C11.489 107.977 11.39 107.704 11.378 107.416C11.378 107.368 11.396 107.326 11.432 107.29C11.474 107.248 11.522 107.227 11.576 107.227H12.035C12.107 107.227 12.161 107.245 12.197 107.281C12.233 107.317 12.257 107.359 12.269 107.407C12.299 107.551 12.371 107.695 12.485 107.839C12.605 107.977 12.77 108.094 12.98 108.19C13.196 108.28 13.472 108.325 13.808 108.325C14.324 108.325 14.702 108.235 14.942 108.055C15.188 107.869 15.311 107.623 15.311 107.317C15.311 107.107 15.245 106.939 15.113 106.813C14.987 106.681 14.792 106.564 14.528 106.462C14.264 106.36 13.922 106.249 13.502 106.129C13.064 106.003 12.701 105.865 12.413 105.715C12.125 105.565 11.909 105.379 11.765 105.157C11.627 104.935 11.558 104.653 11.558 104.311C11.558 103.987 11.645 103.699 11.819 103.447C11.993 103.189 12.242 102.985 12.566 102.835C12.896 102.685 13.295 102.61 13.763 102.61C14.135 102.61 14.459 102.661 14.735 102.763C15.017 102.859 15.251 102.991 15.437 103.159C15.623 103.321 15.764 103.498 15.86 103.69C15.956 103.876 16.007 104.059 16.013 104.239C16.013 104.281 15.998 104.323 15.968 104.365C15.938 104.401 15.89 104.419 15.824 104.419H15.347C15.305 104.419 15.26 104.407 15.212 104.383C15.17 104.359 15.137 104.314 15.113 104.248C15.077 104.002 14.939 103.795 14.699 103.627C14.459 103.459 14.147 103.375 13.763 103.375C13.373 103.375 13.055 103.45 12.809 103.6C12.569 103.75 12.449 103.984 12.449 104.302C12.449 104.506 12.506 104.677 12.62 104.815C12.734 104.947 12.914 105.064 13.16 105.166C13.406 105.268 13.727 105.376 14.123 105.49C14.603 105.622 14.996 105.763 15.302 105.913C15.608 106.057 15.833 106.24 15.977 106.462C16.127 106.678 16.202 106.957 16.202 107.299C16.202 107.677 16.103 108.001 15.905 108.271C15.707 108.535 15.428 108.739 15.068 108.883C14.714 109.021 14.294 109.09 13.808 109.09ZM19.0106 109.09C18.6266 109.09 18.2996 109.006 18.0296 108.838C17.7656 108.664 17.5646 108.424 17.4266 108.118C17.2886 107.812 17.2196 107.461 17.2196 107.065V104.527C17.2196 104.467 17.2376 104.419 17.2736 104.383C17.3156 104.341 17.3666 104.32 17.4266 104.32H17.8766C17.9366 104.32 17.9846 104.341 18.0206 104.383C18.0626 104.419 18.0836 104.467 18.0836 104.527V107.02C18.0836 107.914 18.4736 108.361 19.2536 108.361C19.6256 108.361 19.9226 108.244 20.1446 108.01C20.3726 107.77 20.4866 107.44 20.4866 107.02V104.527C20.4866 104.467 20.5046 104.419 20.5406 104.383C20.5826 104.341 20.6336 104.32 20.6936 104.32H21.1346C21.2006 104.32 21.2516 104.341 21.2876 104.383C21.3236 104.419 21.3416 104.467 21.3416 104.527V108.793C21.3416 108.853 21.3236 108.904 21.2876 108.946C21.2516 108.982 21.2006 109 21.1346 109H20.7206C20.6606 109 20.6096 108.982 20.5676 108.946C20.5316 108.904 20.5136 108.853 20.5136 108.793V108.397C20.3516 108.607 20.1536 108.775 19.9196 108.901C19.6916 109.027 19.3886 109.09 19.0106 109.09ZM22.8947 110.71C22.8347 110.71 22.7837 110.689 22.7417 110.647C22.7057 110.611 22.6877 110.563 22.6877 110.503V104.527C22.6877 104.467 22.7057 104.419 22.7417 104.383C22.7837 104.341 22.8347 104.32 22.8947 104.32H23.3087C23.3687 104.32 23.4167 104.341 23.4527 104.383C23.4947 104.419 23.5157 104.467 23.5157 104.527V104.923C23.6597 104.725 23.8517 104.56 24.0917 104.428C24.3317 104.296 24.6317 104.23 24.9917 104.23C25.3277 104.23 25.6127 104.287 25.8467 104.401C26.0867 104.515 26.2817 104.671 26.4317 104.869C26.5877 105.067 26.7047 105.292 26.7827 105.544C26.8607 105.796 26.9027 106.066 26.9087 106.354C26.9147 106.45 26.9177 106.552 26.9177 106.66C26.9177 106.768 26.9147 106.87 26.9087 106.966C26.9027 107.248 26.8607 107.518 26.7827 107.776C26.7047 108.028 26.5877 108.253 26.4317 108.451C26.2817 108.643 26.0867 108.799 25.8467 108.919C25.6127 109.033 25.3277 109.09 24.9917 109.09C24.6437 109.09 24.3497 109.027 24.1097 108.901C23.8757 108.769 23.6837 108.607 23.5337 108.415V110.503C23.5337 110.563 23.5157 110.611 23.4797 110.647C23.4437 110.689 23.3927 110.71 23.3267 110.71H22.8947ZM24.8027 108.361C25.1147 108.361 25.3577 108.295 25.5317 108.163C25.7117 108.025 25.8407 107.848 25.9187 107.632C25.9967 107.41 26.0417 107.173 26.0537 106.921C26.0597 106.747 26.0597 106.573 26.0537 106.399C26.0417 106.147 25.9967 105.913 25.9187 105.697C25.8407 105.475 25.7117 105.298 25.5317 105.166C25.3577 105.028 25.1147 104.959 24.8027 104.959C24.5087 104.959 24.2687 105.028 24.0827 105.166C23.9027 105.304 23.7677 105.481 23.6777 105.697C23.5937 105.907 23.5457 106.123 23.5337 106.345C23.5277 106.441 23.5247 106.555 23.5247 106.687C23.5247 106.819 23.5277 106.936 23.5337 107.038C23.5397 107.248 23.5877 107.455 23.6777 107.659C23.7737 107.863 23.9147 108.031 24.1007 108.163C24.2867 108.295 24.5207 108.361 24.8027 108.361ZM29.903 109.09C29.285 109.09 28.793 108.901 28.427 108.523C28.061 108.139 27.86 107.617 27.824 106.957C27.818 106.879 27.815 106.78 27.815 106.66C27.815 106.534 27.818 106.432 27.824 106.354C27.848 105.928 27.947 105.556 28.121 105.238C28.295 104.914 28.532 104.665 28.832 104.491C29.138 104.317 29.495 104.23 29.903 104.23C30.359 104.23 30.74 104.326 31.046 104.518C31.358 104.71 31.595 104.983 31.757 105.337C31.919 105.691 32 106.105 32 106.579V106.732C32 106.798 31.979 106.849 31.937 106.885C31.901 106.921 31.853 106.939 31.793 106.939H28.679C28.679 106.945 28.679 106.957 28.679 106.975C28.679 106.993 28.679 107.008 28.679 107.02C28.691 107.266 28.745 107.497 28.841 107.713C28.937 107.923 29.075 108.094 29.255 108.226C29.435 108.358 29.651 108.424 29.903 108.424C30.119 108.424 30.299 108.391 30.443 108.325C30.587 108.259 30.704 108.187 30.794 108.109C30.884 108.025 30.944 107.962 30.974 107.92C31.028 107.842 31.07 107.797 31.1 107.785C31.13 107.767 31.178 107.758 31.244 107.758H31.676C31.736 107.758 31.784 107.776 31.82 107.812C31.862 107.842 31.88 107.887 31.874 107.947C31.868 108.037 31.82 108.148 31.73 108.28C31.64 108.406 31.511 108.532 31.343 108.658C31.175 108.784 30.971 108.889 30.731 108.973C30.491 109.051 30.215 109.09 29.903 109.09ZM28.679 106.318H31.145V106.291C31.145 106.021 31.094 105.781 30.992 105.571C30.896 105.361 30.755 105.196 30.569 105.076C30.383 104.95 30.161 104.887 29.903 104.887C29.645 104.887 29.423 104.95 29.237 105.076C29.057 105.196 28.919 105.361 28.823 105.571C28.727 105.781 28.679 106.021 28.679 106.291V106.318ZM33.2832 109C33.2232 109 33.1722 108.982 33.1302 108.946C33.0942 108.904 33.0762 108.853 33.0762 108.793V104.536C33.0762 104.476 33.0942 104.425 33.1302 104.383C33.1722 104.341 33.2232 104.32 33.2832 104.32H33.6972C33.7572 104.32 33.8082 104.341 33.8502 104.383C33.8922 104.425 33.9132 104.476 33.9132 104.536V104.932C34.0332 104.728 34.1982 104.575 34.4082 104.473C34.6182 104.371 34.8702 104.32 35.1642 104.32H35.5242C35.5842 104.32 35.6322 104.341 35.6682 104.383C35.7042 104.419 35.7222 104.467 35.7222 104.527V104.896C35.7222 104.956 35.7042 105.004 35.6682 105.04C35.6322 105.076 35.5842 105.094 35.5242 105.094H34.9842C34.6602 105.094 34.4052 105.19 34.2192 105.382C34.0332 105.568 33.9402 105.823 33.9402 106.147V108.793C33.9402 108.853 33.9192 108.904 33.8772 108.946C33.8352 108.982 33.7842 109 33.7242 109H33.2832ZM38.8142 109C38.7542 109 38.7032 108.982 38.6612 108.946C38.6252 108.904 38.6072 108.853 38.6072 108.793V102.916C38.6072 102.85 38.6252 102.799 38.6612 102.763C38.7032 102.721 38.7542 102.7 38.8142 102.7H39.2642C39.3362 102.7 39.3902 102.718 39.4262 102.754C39.4622 102.79 39.4832 102.82 39.4892 102.844L41.3972 106.48L43.3142 102.844C43.3262 102.82 43.3472 102.79 43.3772 102.754C43.4132 102.718 43.4672 102.7 43.5392 102.7H43.9802C44.0462 102.7 44.0972 102.721 44.1332 102.763C44.1752 102.799 44.1962 102.85 44.1962 102.916V108.793C44.1962 108.853 44.1752 108.904 44.1332 108.946C44.0972 108.982 44.0462 109 43.9802 109H43.5392C43.4792 109 43.4282 108.982 43.3862 108.946C43.3502 108.904 43.3322 108.853 43.3322 108.793V104.365L41.8292 107.299C41.8052 107.359 41.7692 107.407 41.7212 107.443C41.6732 107.473 41.6132 107.488 41.5412 107.488H41.2622C41.1842 107.488 41.1212 107.473 41.0732 107.443C41.0312 107.407 40.9952 107.359 40.9652 107.299L39.4622 104.365V108.793C39.4622 108.853 39.4412 108.904 39.3992 108.946C39.3632 108.982 39.3152 109 39.2552 109H38.8142ZM46.9407 109.09C46.6407 109.09 46.3677 109.03 46.1217 108.91C45.8757 108.79 45.6777 108.628 45.5277 108.424C45.3777 108.22 45.3027 107.989 45.3027 107.731C45.3027 107.317 45.4707 106.987 45.8067 106.741C46.1427 106.495 46.5807 106.333 47.1207 106.255L48.4617 106.066V105.805C48.4617 105.517 48.3777 105.292 48.2097 105.13C48.0477 104.968 47.7807 104.887 47.4087 104.887C47.1387 104.887 46.9197 104.941 46.7517 105.049C46.5897 105.157 46.4757 105.295 46.4097 105.463C46.3737 105.553 46.3107 105.598 46.2207 105.598H45.8157C45.7497 105.598 45.6987 105.58 45.6627 105.544C45.6327 105.502 45.6177 105.454 45.6177 105.4C45.6177 105.31 45.6507 105.199 45.7167 105.067C45.7887 104.935 45.8967 104.806 46.0407 104.68C46.1847 104.554 46.3677 104.449 46.5897 104.365C46.8177 104.275 47.0937 104.23 47.4177 104.23C47.7777 104.23 48.0807 104.278 48.3267 104.374C48.5727 104.464 48.7647 104.587 48.9027 104.743C49.0467 104.899 49.1487 105.076 49.2087 105.274C49.2747 105.472 49.3077 105.673 49.3077 105.877V108.793C49.3077 108.853 49.2867 108.904 49.2447 108.946C49.2087 108.982 49.1607 109 49.1007 109H48.6867C48.6207 109 48.5697 108.982 48.5337 108.946C48.4977 108.904 48.4797 108.853 48.4797 108.793V108.406C48.4017 108.514 48.2967 108.622 48.1647 108.73C48.0327 108.832 47.8677 108.919 47.6697 108.991C47.4717 109.057 47.2287 109.09 46.9407 109.09ZM47.1297 108.415C47.3757 108.415 47.6007 108.364 47.8047 108.262C48.0087 108.154 48.1677 107.989 48.2817 107.767C48.4017 107.545 48.4617 107.266 48.4617 106.93V106.678L47.4177 106.831C46.9917 106.891 46.6707 106.993 46.4547 107.137C46.2387 107.275 46.1307 107.452 46.1307 107.668C46.1307 107.836 46.1787 107.977 46.2747 108.091C46.3767 108.199 46.5027 108.28 46.6527 108.334C46.8087 108.388 46.9677 108.415 47.1297 108.415ZM50.8085 109C50.7485 109 50.6975 108.982 50.6555 108.946C50.6195 108.904 50.6015 108.853 50.6015 108.793V104.536C50.6015 104.476 50.6195 104.425 50.6555 104.383C50.6975 104.341 50.7485 104.32 50.8085 104.32H51.2225C51.2825 104.32 51.3335 104.341 51.3755 104.383C51.4175 104.425 51.4385 104.476 51.4385 104.536V104.932C51.5585 104.728 51.7235 104.575 51.9335 104.473C52.1435 104.371 52.3955 104.32 52.6895 104.32H53.0495C53.1095 104.32 53.1575 104.341 53.1935 104.383C53.2295 104.419 53.2475 104.467 53.2475 104.527V104.896C53.2475 104.956 53.2295 105.004 53.1935 105.04C53.1575 105.076 53.1095 105.094 53.0495 105.094H52.5095C52.1855 105.094 51.9305 105.19 51.7445 105.382C51.5585 105.568 51.4655 105.823 51.4655 106.147V108.793C51.4655 108.853 51.4445 108.904 51.4025 108.946C51.3605 108.982 51.3095 109 51.2495 109H50.8085ZM54.2365 109C54.1765 109 54.1255 108.982 54.0835 108.946C54.0475 108.904 54.0295 108.853 54.0295 108.793V102.817C54.0295 102.757 54.0475 102.709 54.0835 102.673C54.1255 102.631 54.1765 102.61 54.2365 102.61H54.6595C54.7195 102.61 54.7675 102.631 54.8035 102.673C54.8455 102.709 54.8665 102.757 54.8665 102.817V105.949L56.6395 104.473C56.7115 104.413 56.7655 104.374 56.8015 104.356C56.8435 104.332 56.9095 104.32 56.9995 104.32H57.4765C57.5305 104.32 57.5755 104.338 57.6115 104.374C57.6475 104.41 57.6655 104.455 57.6655 104.509C57.6655 104.533 57.6565 104.56 57.6385 104.59C57.6265 104.62 57.5995 104.65 57.5575 104.68L55.4785 106.408L57.7825 108.649C57.8545 108.709 57.8905 108.763 57.8905 108.811C57.8905 108.865 57.8725 108.91 57.8365 108.946C57.8005 108.982 57.7555 109 57.7015 109H57.2335C57.1435 109 57.0775 108.991 57.0355 108.973C56.9935 108.949 56.9395 108.907 56.8735 108.847L54.8665 106.93V108.793C54.8665 108.853 54.8455 108.904 54.8035 108.946C54.7675 108.982 54.7195 109 54.6595 109H54.2365ZM60.3044 109.09C59.6864 109.09 59.1944 108.901 58.8284 108.523C58.4624 108.139 58.2614 107.617 58.2254 106.957C58.2194 106.879 58.2164 106.78 58.2164 106.66C58.2164 106.534 58.2194 106.432 58.2254 106.354C58.2494 105.928 58.3484 105.556 58.5224 105.238C58.6964 104.914 58.9334 104.665 59.2334 104.491C59.5394 104.317 59.8964 104.23 60.3044 104.23C60.7604 104.23 61.1414 104.326 61.4474 104.518C61.7594 104.71 61.9964 104.983 62.1584 105.337C62.3204 105.691 62.4014 106.105 62.4014 106.579V106.732C62.4014 106.798 62.3804 106.849 62.3384 106.885C62.3024 106.921 62.2544 106.939 62.1944 106.939H59.0804C59.0804 106.945 59.0804 106.957 59.0804 106.975C59.0804 106.993 59.0804 107.008 59.0804 107.02C59.0924 107.266 59.1464 107.497 59.2424 107.713C59.3384 107.923 59.4764 108.094 59.6564 108.226C59.8364 108.358 60.0524 108.424 60.3044 108.424C60.5204 108.424 60.7004 108.391 60.8444 108.325C60.9884 108.259 61.1054 108.187 61.1954 108.109C61.2854 108.025 61.3454 107.962 61.3754 107.92C61.4294 107.842 61.4714 107.797 61.5014 107.785C61.5314 107.767 61.5794 107.758 61.6454 107.758H62.0774C62.1374 107.758 62.1854 107.776 62.2214 107.812C62.2634 107.842 62.2814 107.887 62.2754 107.947C62.2694 108.037 62.2214 108.148 62.1314 108.28C62.0414 108.406 61.9124 108.532 61.7444 108.658C61.5764 108.784 61.3724 108.889 61.1324 108.973C60.8924 109.051 60.6164 109.09 60.3044 109.09ZM59.0804 106.318H61.5464V106.291C61.5464 106.021 61.4954 105.781 61.3934 105.571C61.2974 105.361 61.1564 105.196 60.9704 105.076C60.7844 104.95 60.5624 104.887 60.3044 104.887C60.0464 104.887 59.8244 104.95 59.6384 105.076C59.4584 105.196 59.3204 105.361 59.2244 105.571C59.1284 105.781 59.0804 106.021 59.0804 106.291V106.318ZM65.2782 109C64.9422 109 64.6692 108.937 64.4592 108.811C64.2492 108.679 64.0962 108.496 64.0002 108.262C63.9042 108.022 63.8562 107.74 63.8562 107.416V105.04H63.1542C63.0942 105.04 63.0432 105.022 63.0012 104.986C62.9652 104.944 62.9472 104.893 62.9472 104.833V104.527C62.9472 104.467 62.9652 104.419 63.0012 104.383C63.0432 104.341 63.0942 104.32 63.1542 104.32H63.8562V102.817C63.8562 102.757 63.8742 102.709 63.9102 102.673C63.9522 102.631 64.0032 102.61 64.0632 102.61H64.4862C64.5462 102.61 64.5942 102.631 64.6302 102.673C64.6722 102.709 64.6932 102.757 64.6932 102.817V104.32H65.8092C65.8692 104.32 65.9172 104.341 65.9532 104.383C65.9952 104.419 66.0162 104.467 66.0162 104.527V104.833C66.0162 104.893 65.9952 104.944 65.9532 104.986C65.9172 105.022 65.8692 105.04 65.8092 105.04H64.6932V107.353C64.6932 107.635 64.7412 107.857 64.8372 108.019C64.9332 108.181 65.1042 108.262 65.3502 108.262H65.8992C65.9592 108.262 66.0072 108.283 66.0432 108.325C66.0852 108.361 66.1062 108.409 66.1062 108.469V108.793C66.1062 108.853 66.0852 108.904 66.0432 108.946C66.0072 108.982 65.9592 109 65.8992 109H65.2782ZM71.3148 109.09C70.7928 109.09 70.3548 109.012 70.0008 108.856C69.6468 108.694 69.3738 108.487 69.1818 108.235C68.9958 107.977 68.8968 107.704 68.8848 107.416C68.8848 107.368 68.9028 107.326 68.9388 107.29C68.9808 107.248 69.0288 107.227 69.0828 107.227H69.5418C69.6138 107.227 69.6678 107.245 69.7038 107.281C69.7398 107.317 69.7638 107.359 69.7758 107.407C69.8058 107.551 69.8778 107.695 69.9918 107.839C70.1118 107.977 70.2768 108.094 70.4868 108.19C70.7028 108.28 70.9788 108.325 71.3148 108.325C71.8308 108.325 72.2088 108.235 72.4488 108.055C72.6948 107.869 72.8178 107.623 72.8178 107.317C72.8178 107.107 72.7518 106.939 72.6198 106.813C72.4938 106.681 72.2988 106.564 72.0348 106.462C71.7708 106.36 71.4288 106.249 71.0088 106.129C70.5708 106.003 70.2078 105.865 69.9198 105.715C69.6318 105.565 69.4158 105.379 69.2718 105.157C69.1338 104.935 69.0648 104.653 69.0648 104.311C69.0648 103.987 69.1518 103.699 69.3258 103.447C69.4998 103.189 69.7488 102.985 70.0728 102.835C70.4028 102.685 70.8018 102.61 71.2698 102.61C71.6418 102.61 71.9658 102.661 72.2418 102.763C72.5238 102.859 72.7578 102.991 72.9438 103.159C73.1298 103.321 73.2708 103.498 73.3668 103.69C73.4628 103.876 73.5138 104.059 73.5198 104.239C73.5198 104.281 73.5048 104.323 73.4748 104.365C73.4448 104.401 73.3968 104.419 73.3308 104.419H72.8538C72.8118 104.419 72.7668 104.407 72.7188 104.383C72.6768 104.359 72.6438 104.314 72.6198 104.248C72.5838 104.002 72.4458 103.795 72.2058 103.627C71.9658 103.459 71.6538 103.375 71.2698 103.375C70.8798 103.375 70.5618 103.45 70.3158 103.6C70.0758 103.75 69.9558 103.984 69.9558 104.302C69.9558 104.506 70.0128 104.677 70.1268 104.815C70.2408 104.947 70.4208 105.064 70.6668 105.166C70.9128 105.268 71.2338 105.376 71.6298 105.49C72.1098 105.622 72.5028 105.763 72.8088 105.913C73.1148 106.057 73.3398 106.24 73.4838 106.462C73.6338 106.678 73.7088 106.957 73.7088 107.299C73.7088 107.677 73.6098 108.001 73.4118 108.271C73.2138 108.535 72.9348 108.739 72.5748 108.883C72.2208 109.021 71.8008 109.09 71.3148 109.09ZM76.5985 109C76.2625 109 75.9895 108.937 75.7795 108.811C75.5695 108.679 75.4165 108.496 75.3205 108.262C75.2245 108.022 75.1765 107.74 75.1765 107.416V105.04H74.4745C74.4145 105.04 74.3635 105.022 74.3215 104.986C74.2855 104.944 74.2675 104.893 74.2675 104.833V104.527C74.2675 104.467 74.2855 104.419 74.3215 104.383C74.3635 104.341 74.4145 104.32 74.4745 104.32H75.1765V102.817C75.1765 102.757 75.1945 102.709 75.2305 102.673C75.2725 102.631 75.3235 102.61 75.3835 102.61H75.8065C75.8665 102.61 75.9145 102.631 75.9505 102.673C75.9925 102.709 76.0135 102.757 76.0135 102.817V104.32H77.1295C77.1895 104.32 77.2375 104.341 77.2735 104.383C77.3155 104.419 77.3365 104.467 77.3365 104.527V104.833C77.3365 104.893 77.3155 104.944 77.2735 104.986C77.2375 105.022 77.1895 105.04 77.1295 105.04H76.0135V107.353C76.0135 107.635 76.0615 107.857 76.1575 108.019C76.2535 108.181 76.4245 108.262 76.6705 108.262H77.2195C77.2795 108.262 77.3275 108.283 77.3635 108.325C77.4055 108.361 77.4265 108.409 77.4265 108.469V108.793C77.4265 108.853 77.4055 108.904 77.3635 108.946C77.3275 108.982 77.2795 109 77.2195 109H76.5985ZM80.2041 109.09C79.7481 109.09 79.3671 109.003 79.0611 108.829C78.7551 108.655 78.5211 108.415 78.3591 108.109C78.1971 107.797 78.1071 107.443 78.0891 107.047C78.0831 106.945 78.0801 106.816 78.0801 106.66C78.0801 106.498 78.0831 106.369 78.0891 106.273C78.1071 105.871 78.1971 105.517 78.3591 105.211C78.5271 104.905 78.7641 104.665 79.0701 104.491C79.3761 104.317 79.7541 104.23 80.2041 104.23C80.6541 104.23 81.0321 104.317 81.3381 104.491C81.6441 104.665 81.8781 104.905 82.0401 105.211C82.2081 105.517 82.3011 105.871 82.3191 106.273C82.3251 106.369 82.3281 106.498 82.3281 106.66C82.3281 106.816 82.3251 106.945 82.3191 107.047C82.3011 107.443 82.2111 107.797 82.0491 108.109C81.8871 108.415 81.6531 108.655 81.3471 108.829C81.0411 109.003 80.6601 109.09 80.2041 109.09ZM80.2041 108.397C80.5761 108.397 80.8731 108.28 81.0951 108.046C81.3171 107.806 81.4371 107.458 81.4551 107.002C81.4611 106.912 81.4641 106.798 81.4641 106.66C81.4641 106.522 81.4611 106.408 81.4551 106.318C81.4371 105.862 81.3171 105.517 81.0951 105.283C80.8731 105.043 80.5761 104.923 80.2041 104.923C79.8321 104.923 79.5321 105.043 79.3041 105.283C79.0821 105.517 78.9651 105.862 78.9531 106.318C78.9471 106.408 78.9441 106.522 78.9441 106.66C78.9441 106.798 78.9471 106.912 78.9531 107.002C78.9651 107.458 79.0821 107.806 79.3041 108.046C79.5321 108.28 79.8321 108.397 80.2041 108.397ZM83.6621 109C83.6021 109 83.5511 108.982 83.5091 108.946C83.4731 108.904 83.4551 108.853 83.4551 108.793V104.536C83.4551 104.476 83.4731 104.425 83.5091 104.383C83.5511 104.341 83.6021 104.32 83.6621 104.32H84.0761C84.1361 104.32 84.1871 104.341 84.2291 104.383C84.2711 104.425 84.2921 104.476 84.2921 104.536V104.932C84.4121 104.728 84.5771 104.575 84.7871 104.473C84.9971 104.371 85.2491 104.32 85.5431 104.32H85.9031C85.9631 104.32 86.0111 104.341 86.0471 104.383C86.0831 104.419 86.1011 104.467 86.1011 104.527V104.896C86.1011 104.956 86.0831 105.004 86.0471 105.04C86.0111 105.076 85.9631 105.094 85.9031 105.094H85.3631C85.0391 105.094 84.7841 105.19 84.5981 105.382C84.4121 105.568 84.3191 105.823 84.3191 106.147V108.793C84.3191 108.853 84.2981 108.904 84.2561 108.946C84.2141 108.982 84.1631 109 84.1031 109H83.6621ZM88.6491 109.09C88.0311 109.09 87.5391 108.901 87.1731 108.523C86.8071 108.139 86.6061 107.617 86.5701 106.957C86.5641 106.879 86.5611 106.78 86.5611 106.66C86.5611 106.534 86.5641 106.432 86.5701 106.354C86.5941 105.928 86.6931 105.556 86.8671 105.238C87.0411 104.914 87.2781 104.665 87.5781 104.491C87.8841 104.317 88.2411 104.23 88.6491 104.23C89.1051 104.23 89.4861 104.326 89.7921 104.518C90.1041 104.71 90.3411 104.983 90.5031 105.337C90.6651 105.691 90.7461 106.105 90.7461 106.579V106.732C90.7461 106.798 90.7251 106.849 90.6831 106.885C90.6471 106.921 90.5991 106.939 90.5391 106.939H87.4251C87.4251 106.945 87.4251 106.957 87.4251 106.975C87.4251 106.993 87.4251 107.008 87.4251 107.02C87.4371 107.266 87.4911 107.497 87.5871 107.713C87.6831 107.923 87.8211 108.094 88.0011 108.226C88.1811 108.358 88.3971 108.424 88.6491 108.424C88.8651 108.424 89.0451 108.391 89.1891 108.325C89.3331 108.259 89.4501 108.187 89.5401 108.109C89.6301 108.025 89.6901 107.962 89.7201 107.92C89.7741 107.842 89.8161 107.797 89.8461 107.785C89.8761 107.767 89.9241 107.758 89.9901 107.758H90.4221C90.4821 107.758 90.5301 107.776 90.5661 107.812C90.6081 107.842 90.6261 107.887 90.6201 107.947C90.6141 108.037 90.5661 108.148 90.4761 108.28C90.3861 108.406 90.2571 108.532 90.0891 108.658C89.9211 108.784 89.7171 108.889 89.4771 108.973C89.2371 109.051 88.9611 109.09 88.6491 109.09ZM87.4251 106.318H89.8911V106.291C89.8911 106.021 89.8401 105.781 89.7381 105.571C89.6421 105.361 89.5011 105.196 89.3151 105.076C89.1291 104.95 88.9071 104.887 88.6491 104.887C88.3911 104.887 88.1691 104.95 87.9831 105.076C87.8031 105.196 87.6651 105.361 87.5691 105.571C87.4731 105.781 87.4251 106.021 87.4251 106.291V106.318Z" fill="#111111"/>
<path d="M3.86 91C3.66 91 3.5 90.9467 3.38 90.84C3.27333 90.72 3.2 90.5733 3.16 90.4L0.78 77.58C0.78 77.54 0.773333 77.5067 0.76 77.48C0.76 77.4533 0.76 77.4333 0.76 77.42C0.76 77.3 0.8 77.2 0.88 77.12C0.973333 77.04 1.07333 77 1.18 77H2.94C3.27333 77 3.46 77.1333 3.5 77.4L5.16 86.46L6.96 80.6C7 80.4933 7.06667 80.3867 7.16 80.28C7.26667 80.16 7.42 80.1 7.62 80.1H8.7C8.91333 80.1 9.06667 80.16 9.16 80.28C9.25333 80.3867 9.31333 80.4933 9.34 80.6L11.16 86.44L12.82 77.4C12.86 77.1333 13.0467 77 13.38 77H15.14C15.2467 77 15.34 77.04 15.42 77.12C15.5 77.2 15.54 77.3 15.54 77.42C15.54 77.4333 15.54 77.4533 15.54 77.48C15.54 77.5067 15.5333 77.54 15.52 77.58L13.14 90.4C13.1133 90.5733 13.04 90.72 12.92 90.84C12.8 90.9467 12.64 91 12.44 91H11.1C10.9 91 10.74 90.9467 10.62 90.84C10.5133 90.7333 10.44 90.62 10.4 90.5L8.16 83.82L5.92 90.5C5.86667 90.62 5.78667 90.7333 5.68 90.84C5.57333 90.9467 5.41333 91 5.2 91H3.86ZM20.2384 91.2C19.5451 91.2 18.9184 91.0667 18.3584 90.8C17.7984 90.52 17.3518 90.1533 17.0184 89.7C16.6984 89.2333 16.5384 88.7133 16.5384 88.14C16.5384 87.2067 16.9118 86.4667 17.6584 85.92C18.4184 85.36 19.4184 84.9867 20.6584 84.8L23.3984 84.4V83.98C23.3984 83.42 23.2584 82.9867 22.9784 82.68C22.6984 82.3733 22.2184 82.22 21.5384 82.22C21.0584 82.22 20.6651 82.32 20.3584 82.52C20.0651 82.7067 19.8451 82.96 19.6984 83.28C19.5918 83.4533 19.4384 83.54 19.2384 83.54H17.6584C17.5118 83.54 17.3984 83.5 17.3184 83.42C17.2518 83.34 17.2184 83.2333 17.2184 83.1C17.2318 82.8867 17.3184 82.6267 17.4784 82.32C17.6384 82.0133 17.8918 81.72 18.2384 81.44C18.5851 81.1467 19.0318 80.9 19.5784 80.7C20.1251 80.5 20.7851 80.4 21.5584 80.4C22.3984 80.4 23.1051 80.5067 23.6784 80.72C24.2651 80.92 24.7318 81.1933 25.0784 81.54C25.4251 81.8867 25.6784 82.2933 25.8384 82.76C25.9984 83.2267 26.0784 83.72 26.0784 84.24V90.52C26.0784 90.6533 26.0318 90.7667 25.9384 90.86C25.8451 90.9533 25.7318 91 25.5984 91H23.9784C23.8318 91 23.7118 90.9533 23.6184 90.86C23.5384 90.7667 23.4984 90.6533 23.4984 90.52V89.74C23.3251 89.9933 23.0918 90.2333 22.7984 90.46C22.5051 90.6733 22.1451 90.8533 21.7184 91C21.3051 91.1333 20.8118 91.2 20.2384 91.2ZM20.9184 89.3C21.3851 89.3 21.8051 89.2 22.1784 89C22.5651 88.8 22.8651 88.4933 23.0784 88.08C23.3051 87.6533 23.4184 87.12 23.4184 86.48V86.06L21.4184 86.38C20.6318 86.5 20.0451 86.6933 19.6584 86.96C19.2718 87.2267 19.0784 87.5533 19.0784 87.94C19.0784 88.2333 19.1651 88.4867 19.3384 88.7C19.5251 88.9 19.7584 89.0533 20.0384 89.16C20.3184 89.2533 20.6118 89.3 20.9184 89.3ZM29.1242 91C28.9909 91 28.8776 90.9533 28.7842 90.86C28.6909 90.7667 28.6442 90.6533 28.6442 90.52V81.1C28.6442 80.9533 28.6909 80.8333 28.7842 80.74C28.8776 80.6467 28.9909 80.6 29.1242 80.6H30.7442C30.8776 80.6 30.9909 80.6467 31.0842 80.74C31.1909 80.8333 31.2442 80.9533 31.2442 81.1V81.92C31.5509 81.4933 31.9442 81.1667 32.4242 80.94C32.9176 80.7133 33.4842 80.6 34.1242 80.6H34.9442C35.0909 80.6 35.2042 80.6467 35.2842 80.74C35.3776 80.8333 35.4242 80.9467 35.4242 81.08V82.52C35.4242 82.6533 35.3776 82.7667 35.2842 82.86C35.2042 82.9533 35.0909 83 34.9442 83H33.3842C32.7442 83 32.2442 83.18 31.8842 83.54C31.5376 83.9 31.3642 84.3933 31.3642 85.02V90.52C31.3642 90.6533 31.3176 90.7667 31.2242 90.86C31.1309 90.9533 31.0109 91 30.8642 91H29.1242ZM41.3273 91.2C39.8473 91.2 38.674 90.7733 37.8073 89.92C36.9407 89.0667 36.474 87.8533 36.4073 86.28C36.394 86.1467 36.3873 85.98 36.3873 85.78C36.3873 85.5667 36.394 85.4 36.4073 85.28C36.4607 84.28 36.6873 83.4133 37.0873 82.68C37.5007 81.9467 38.0673 81.3867 38.7873 81C39.5073 80.6 40.354 80.4 41.3273 80.4C42.4073 80.4 43.314 80.6267 44.0473 81.08C44.7807 81.52 45.334 82.14 45.7073 82.94C46.0807 83.7267 46.2673 84.64 46.2673 85.68V86.1C46.2673 86.2333 46.2207 86.3467 46.1273 86.44C46.034 86.5333 45.914 86.58 45.7673 86.58H39.1273C39.1273 86.58 39.1273 86.6 39.1273 86.64C39.1273 86.68 39.1273 86.7133 39.1273 86.74C39.1407 87.2067 39.2273 87.64 39.3873 88.04C39.5607 88.4267 39.8073 88.74 40.1273 88.98C40.4607 89.22 40.854 89.34 41.3073 89.34C41.6807 89.34 41.994 89.2867 42.2473 89.18C42.5007 89.06 42.7073 88.9267 42.8673 88.78C43.0273 88.6333 43.1407 88.5133 43.2073 88.42C43.3273 88.26 43.4207 88.1667 43.4873 88.14C43.5673 88.1 43.6807 88.08 43.8273 88.08H45.5473C45.6807 88.08 45.7873 88.12 45.8673 88.2C45.9607 88.28 46.0007 88.38 45.9873 88.5C45.974 88.7133 45.8607 88.9733 45.6473 89.28C45.4473 89.5867 45.154 89.8867 44.7673 90.18C44.3807 90.4733 43.894 90.72 43.3073 90.92C42.734 91.1067 42.074 91.2 41.3273 91.2ZM39.1273 84.9H43.5473V84.84C43.5473 84.32 43.4607 83.8667 43.2873 83.48C43.114 83.0933 42.8607 82.7867 42.5273 82.56C42.194 82.3333 41.794 82.22 41.3273 82.22C40.8607 82.22 40.4607 82.3333 40.1273 82.56C39.794 82.7867 39.5407 83.0933 39.3673 83.48C39.2073 83.8667 39.1273 84.32 39.1273 84.84V84.9ZM48.8903 91C48.757 91 48.6436 90.9533 48.5503 90.86C48.457 90.7667 48.4103 90.6533 48.4103 90.52V77.28C48.4103 77.1467 48.457 77.0333 48.5503 76.94C48.6436 76.8467 48.757 76.8 48.8903 76.8H50.6703C50.817 76.8 50.9303 76.8467 51.0103 76.94C51.1036 77.0333 51.1503 77.1467 51.1503 77.28V81.84C51.5103 81.4133 51.9503 81.0667 52.4703 80.8C52.9903 80.5333 53.6303 80.4 54.3903 80.4C55.2036 80.4 55.9103 80.5867 56.5103 80.96C57.1236 81.32 57.597 81.8333 57.9303 82.5C58.2636 83.1667 58.4303 83.9667 58.4303 84.9V90.52C58.4303 90.6533 58.3836 90.7667 58.2903 90.86C58.197 90.9533 58.0836 91 57.9503 91H56.1503C56.017 91 55.9036 90.9533 55.8103 90.86C55.717 90.7667 55.6703 90.6533 55.6703 90.52V85.02C55.6703 84.2467 55.477 83.64 55.0903 83.2C54.717 82.76 54.1703 82.54 53.4503 82.54C52.757 82.54 52.197 82.76 51.7703 83.2C51.357 83.64 51.1503 84.2467 51.1503 85.02V90.52C51.1503 90.6533 51.1036 90.7667 51.0103 90.86C50.9303 90.9533 50.817 91 50.6703 91H48.8903ZM65.5684 91.2C64.5018 91.2 63.6018 91.0133 62.8684 90.64C62.1484 90.2667 61.5951 89.74 61.2084 89.06C60.8351 88.38 60.6218 87.5867 60.5684 86.68C60.5551 86.44 60.5484 86.1467 60.5484 85.8C60.5484 85.4533 60.5551 85.16 60.5684 84.92C60.6218 84 60.8418 83.2067 61.2284 82.54C61.6284 81.86 62.1884 81.3333 62.9084 80.96C63.6418 80.5867 64.5284 80.4 65.5684 80.4C66.6084 80.4 67.4884 80.5867 68.2084 80.96C68.9418 81.3333 69.5018 81.86 69.8884 82.54C70.2884 83.2067 70.5151 84 70.5684 84.92C70.5818 85.16 70.5884 85.4533 70.5884 85.8C70.5884 86.1467 70.5818 86.44 70.5684 86.68C70.5151 87.5867 70.2951 88.38 69.9084 89.06C69.5351 89.74 68.9818 90.2667 68.2484 90.64C67.5284 91.0133 66.6351 91.2 65.5684 91.2ZM65.5684 89.22C66.2751 89.22 66.8218 89 67.2084 88.56C67.5951 88.1067 67.8084 87.4467 67.8484 86.58C67.8618 86.38 67.8684 86.12 67.8684 85.8C67.8684 85.48 67.8618 85.22 67.8484 85.02C67.8084 84.1667 67.5951 83.5133 67.2084 83.06C66.8218 82.6067 66.2751 82.38 65.5684 82.38C64.8618 82.38 64.3151 82.6067 63.9284 83.06C63.5418 83.5133 63.3284 84.1667 63.2884 85.02C63.2751 85.22 63.2684 85.48 63.2684 85.8C63.2684 86.12 63.2751 86.38 63.2884 86.58C63.3284 87.4467 63.5418 88.1067 63.9284 88.56C64.3151 89 64.8618 89.22 65.5684 89.22ZM76.6644 91.2C75.851 91.2 75.1444 91.02 74.5444 90.66C73.9577 90.2867 73.5044 89.7667 73.1844 89.1C72.8644 88.42 72.7044 87.62 72.7044 86.7V81.08C72.7044 80.9467 72.751 80.8333 72.8444 80.74C72.9377 80.6467 73.051 80.6 73.1844 80.6H74.9444C75.091 80.6 75.2044 80.6467 75.2844 80.74C75.3777 80.8333 75.4244 80.9467 75.4244 81.08V86.58C75.4244 88.2333 76.151 89.06 77.6044 89.06C78.2977 89.06 78.8444 88.84 79.2444 88.4C79.6577 87.96 79.8644 87.3533 79.8644 86.58V81.08C79.8644 80.9467 79.911 80.8333 80.0044 80.74C80.0977 80.6467 80.211 80.6 80.3444 80.6H82.1044C82.2377 80.6 82.351 80.6467 82.4444 80.74C82.5377 80.8333 82.5844 80.9467 82.5844 81.08V90.52C82.5844 90.6533 82.5377 90.7667 82.4444 90.86C82.351 90.9533 82.2377 91 82.1044 91H80.4844C80.3377 91 80.2177 90.9533 80.1244 90.86C80.0444 90.7667 80.0044 90.6533 80.0044 90.52V89.7C79.6444 90.1667 79.1977 90.5333 78.6644 90.8C78.131 91.0667 77.4644 91.2 76.6644 91.2ZM89.1663 91.2C88.3663 91.2 87.6796 91.1067 87.1063 90.92C86.5463 90.7333 86.0863 90.5 85.7263 90.22C85.3663 89.94 85.0996 89.66 84.9263 89.38C84.7529 89.1 84.6596 88.8667 84.6463 88.68C84.6329 88.5333 84.6729 88.42 84.7663 88.34C84.8729 88.2467 84.9863 88.2 85.1063 88.2H86.6863C86.7396 88.2 86.7863 88.2067 86.8263 88.22C86.8663 88.2333 86.9196 88.2733 86.9863 88.34C87.1596 88.4867 87.3396 88.64 87.5263 88.8C87.7263 88.96 87.9596 89.1 88.2263 89.22C88.4929 89.3267 88.8263 89.38 89.2263 89.38C89.7463 89.38 90.1796 89.28 90.5263 89.08C90.8863 88.8667 91.0663 88.5667 91.0663 88.18C91.0663 87.9 90.9863 87.6733 90.8263 87.5C90.6796 87.3267 90.3996 87.1733 89.9863 87.04C89.5729 86.8933 88.9863 86.74 88.2263 86.58C87.4796 86.4067 86.8596 86.1867 86.3663 85.92C85.8729 85.6533 85.5063 85.32 85.2663 84.92C85.0263 84.52 84.9063 84.0533 84.9063 83.52C84.9063 83 85.0596 82.5067 85.3663 82.04C85.6863 81.56 86.1529 81.1667 86.7663 80.86C87.3929 80.5533 88.1663 80.4 89.0863 80.4C89.8063 80.4 90.4329 80.4933 90.9663 80.68C91.4996 80.8533 91.9396 81.0733 92.2863 81.34C92.6463 81.6067 92.9196 81.88 93.1063 82.16C93.2929 82.4267 93.3929 82.66 93.4063 82.86C93.4196 83.0067 93.3796 83.1267 93.2863 83.22C93.1929 83.3 93.0863 83.34 92.9663 83.34H91.4863C91.4196 83.34 91.3596 83.3267 91.3063 83.3C91.2529 83.2733 91.1996 83.24 91.1463 83.2C90.9996 83.0667 90.8396 82.9267 90.6663 82.78C90.4929 82.6333 90.2796 82.5067 90.0263 82.4C89.7863 82.28 89.4663 82.22 89.0663 82.22C88.5596 82.22 88.1729 82.3333 87.9063 82.56C87.6396 82.7733 87.5063 83.0467 87.5063 83.38C87.5063 83.6067 87.5663 83.8067 87.6863 83.98C87.8196 84.14 88.0796 84.2933 88.4663 84.44C88.8529 84.5867 89.4396 84.74 90.2263 84.9C91.1196 85.06 91.8263 85.3 92.3463 85.62C92.8796 85.9267 93.2529 86.2867 93.4663 86.7C93.6929 87.1 93.8063 87.5467 93.8063 88.04C93.8063 88.64 93.6263 89.18 93.2663 89.66C92.9196 90.14 92.3996 90.52 91.7063 90.8C91.0263 91.0667 90.1796 91.2 89.1663 91.2ZM100.351 91.2C98.8708 91.2 97.6974 90.7733 96.8308 89.92C95.9641 89.0667 95.4974 87.8533 95.4308 86.28C95.4174 86.1467 95.4108 85.98 95.4108 85.78C95.4108 85.5667 95.4174 85.4 95.4308 85.28C95.4841 84.28 95.7108 83.4133 96.1108 82.68C96.5241 81.9467 97.0908 81.3867 97.8108 81C98.5308 80.6 99.3774 80.4 100.351 80.4C101.431 80.4 102.337 80.6267 103.071 81.08C103.804 81.52 104.357 82.14 104.731 82.94C105.104 83.7267 105.291 84.64 105.291 85.68V86.1C105.291 86.2333 105.244 86.3467 105.151 86.44C105.057 86.5333 104.937 86.58 104.791 86.58H98.1508C98.1508 86.58 98.1508 86.6 98.1508 86.64C98.1508 86.68 98.1508 86.7133 98.1508 86.74C98.1641 87.2067 98.2508 87.64 98.4108 88.04C98.5841 88.4267 98.8308 88.74 99.1508 88.98C99.4841 89.22 99.8774 89.34 100.331 89.34C100.704 89.34 101.017 89.2867 101.271 89.18C101.524 89.06 101.731 88.9267 101.891 88.78C102.051 88.6333 102.164 88.5133 102.231 88.42C102.351 88.26 102.444 88.1667 102.511 88.14C102.591 88.1 102.704 88.08 102.851 88.08H104.571C104.704 88.08 104.811 88.12 104.891 88.2C104.984 88.28 105.024 88.38 105.011 88.5C104.997 88.7133 104.884 88.9733 104.671 89.28C104.471 89.5867 104.177 89.8867 103.791 90.18C103.404 90.4733 102.917 90.72 102.331 90.92C101.757 91.1067 101.097 91.2 100.351 91.2ZM98.1508 84.9H102.571V84.84C102.571 84.32 102.484 83.8667 102.311 83.48C102.137 83.0933 101.884 82.7867 101.551 82.56C101.217 82.3333 100.817 82.22 100.351 82.22C99.8841 82.22 99.4841 82.3333 99.1508 82.56C98.8174 82.7867 98.5641 83.0933 98.3908 83.48C98.2308 83.8667 98.1508 84.32 98.1508 84.84V84.9Z" fill="white"/>
<path d="M31.5273 5.94212L28.1061 11.8842L32.6077 19.2154C36.9035 26.2379 37.1093 26.6237 37.1093 27.8842C37.1093 29.1446 36.9035 29.5305 32.6077 36.553L28.1061 43.8842L31.5273 49.8263L34.9228 55.7941H50.9999L67.0771 55.7684L75.0513 41.9035C79.45 34.2636 83.0256 27.9356 82.9999 27.8585C82.9999 27.7813 79.3986 21.4791 75.0256 13.8392L67.0771 3.8147e-06H50.9999H34.9228L31.5273 5.94212ZM49.0192 12.6817C49.4822 12.8617 53.2893 16.1286 57.5079 19.9099C63.3472 25.1575 65.1478 26.9067 65.1478 27.3697C65.1478 28.1929 49.7909 42.0321 48.6334 42.2636C47.7073 42.4436 45.3408 42.4694 45.3408 42.2893C45.3408 42.2121 47.3729 38.971 49.8424 35.0867C52.4404 30.971 54.344 27.7299 54.344 27.3697C54.344 27.0096 52.4662 23.7684 49.971 19.7813C47.5787 15.9485 45.598 12.7074 45.598 12.5788C45.598 12.1929 48.0675 12.2701 49.0192 12.6817Z" fill="#FFCC00"/>
<path d="M22.0868 22.3537C20.3891 25.2861 19 27.7813 19 27.8842C19 28.2958 25.1736 38.7652 25.3022 38.6109C25.4051 38.508 26.3312 36.3986 27.3601 33.9292C29.9067 27.7813 29.9067 28.0385 27.4887 22.1221C26.4083 19.4984 25.4566 17.2861 25.3537 17.1833C25.2251 17.0804 23.7588 19.3955 22.0868 22.3537Z" fill="#FFCC00"/>
</svg>
