<svg width="129" height="31" viewBox="0 0 129 31" fill="none" xmlns="http://www.w3.org/2000/svg">
<rect x="37" y="19" width="91" height="12" rx="3" fill="#314BC3"/>
<path d="M52.247 27.07C51.813 27.07 51.449 27.007 51.155 26.881C50.8657 26.7503 50.644 26.5823 50.49 26.377C50.3407 26.167 50.2613 25.9477 50.252 25.719C50.252 25.677 50.266 25.642 50.294 25.614C50.322 25.586 50.357 25.572 50.399 25.572H51.022C51.0827 25.572 51.127 25.586 51.155 25.614C51.1877 25.6373 51.2157 25.6677 51.239 25.705C51.267 25.7937 51.3207 25.8823 51.4 25.971C51.4793 26.055 51.5867 26.125 51.722 26.181C51.862 26.237 52.037 26.265 52.247 26.265C52.583 26.265 52.8327 26.209 52.996 26.097C53.164 25.985 53.248 25.8333 53.248 25.642C53.248 25.5067 53.2037 25.3993 53.115 25.32C53.0263 25.236 52.8887 25.1613 52.702 25.096C52.52 25.026 52.2773 24.9537 51.974 24.879C51.624 24.795 51.33 24.6947 51.092 24.578C50.8587 24.4567 50.6813 24.305 50.56 24.123C50.4433 23.941 50.385 23.71 50.385 23.43C50.385 23.1593 50.4573 22.919 50.602 22.709C50.7513 22.499 50.9613 22.3333 51.232 22.212C51.5073 22.0907 51.834 22.03 52.212 22.03C52.5153 22.03 52.7837 22.072 53.017 22.156C53.2503 22.2353 53.444 22.3427 53.598 22.478C53.752 22.6087 53.8687 22.751 53.948 22.905C54.032 23.0543 54.0763 23.2013 54.081 23.346C54.081 23.3833 54.067 23.4183 54.039 23.451C54.0157 23.479 53.9807 23.493 53.934 23.493H53.283C53.2457 23.493 53.2083 23.4837 53.171 23.465C53.1337 23.4463 53.1033 23.4113 53.08 23.36C53.052 23.2153 52.961 23.0917 52.807 22.989C52.653 22.8863 52.4547 22.835 52.212 22.835C51.96 22.835 51.757 22.8817 51.603 22.975C51.449 23.0683 51.372 23.213 51.372 23.409C51.372 23.5397 51.4093 23.6493 51.484 23.738C51.5633 23.822 51.687 23.8967 51.855 23.962C52.0277 24.0273 52.254 24.0973 52.534 24.172C52.9307 24.2607 53.255 24.3633 53.507 24.48C53.759 24.5967 53.9433 24.746 54.06 24.928C54.1767 25.1053 54.235 25.3317 54.235 25.607C54.235 25.915 54.151 26.1787 53.983 26.398C53.8197 26.6127 53.5887 26.7783 53.29 26.895C52.9913 27.0117 52.6437 27.07 52.247 27.07ZM56.3042 27.07C56.0195 27.07 55.7722 27.007 55.5622 26.881C55.3569 26.7503 55.1982 26.5683 55.0862 26.335C54.9742 26.097 54.9182 25.817 54.9182 25.495V23.528C54.9182 23.4813 54.9345 23.4417 54.9672 23.409C54.9999 23.3763 55.0395 23.36 55.0862 23.36H55.7022C55.7535 23.36 55.7932 23.3763 55.8212 23.409C55.8539 23.4417 55.8702 23.4813 55.8702 23.528V25.453C55.8702 26.0317 56.1245 26.321 56.6332 26.321C56.8759 26.321 57.0672 26.244 57.2072 26.09C57.3519 25.936 57.4242 25.7237 57.4242 25.453V23.528C57.4242 23.4813 57.4405 23.4417 57.4732 23.409C57.5059 23.3763 57.5455 23.36 57.5922 23.36H58.2082C58.2549 23.36 58.2945 23.3763 58.3272 23.409C58.3599 23.4417 58.3762 23.4813 58.3762 23.528V26.832C58.3762 26.8787 58.3599 26.9183 58.3272 26.951C58.2945 26.9837 58.2549 27 58.2082 27H57.6412C57.5899 27 57.5479 26.9837 57.5152 26.951C57.4872 26.9183 57.4732 26.8787 57.4732 26.832V26.545C57.3472 26.7083 57.1909 26.8367 57.0042 26.93C56.8175 27.0233 56.5842 27.07 56.3042 27.07ZM59.4759 28.33C59.4292 28.33 59.3895 28.3137 59.3569 28.281C59.3242 28.2483 59.3079 28.2087 59.3079 28.162V23.528C59.3079 23.4813 59.3242 23.4417 59.3569 23.409C59.3895 23.3763 59.4292 23.36 59.4759 23.36H60.0289C60.0802 23.36 60.1199 23.3763 60.1479 23.409C60.1805 23.4417 60.1969 23.4813 60.1969 23.528V23.808C60.3089 23.6587 60.4559 23.535 60.6379 23.437C60.8199 23.339 61.0462 23.29 61.3169 23.29C61.5642 23.29 61.7789 23.3297 61.9609 23.409C62.1429 23.4883 62.2945 23.6027 62.4159 23.752C62.5372 23.8967 62.6305 24.0693 62.6959 24.27C62.7612 24.4707 62.7985 24.6923 62.8079 24.935C62.8125 25.0143 62.8149 25.096 62.8149 25.18C62.8149 25.264 62.8125 25.348 62.8079 25.432C62.8032 25.6653 62.7682 25.8823 62.7029 26.083C62.6375 26.279 62.5419 26.4517 62.4159 26.601C62.2945 26.7457 62.1429 26.86 61.9609 26.944C61.7789 27.028 61.5642 27.07 61.3169 27.07C61.0649 27.07 60.8502 27.0257 60.6729 26.937C60.4955 26.8437 60.3509 26.7223 60.2389 26.573V28.162C60.2389 28.2087 60.2225 28.2483 60.1899 28.281C60.1619 28.3137 60.1222 28.33 60.0709 28.33H59.4759ZM61.0579 26.321C61.2585 26.321 61.4149 26.279 61.5269 26.195C61.6389 26.1063 61.7182 25.992 61.7649 25.852C61.8162 25.712 61.8465 25.558 61.8559 25.39C61.8652 25.25 61.8652 25.11 61.8559 24.97C61.8465 24.802 61.8162 24.648 61.7649 24.508C61.7182 24.368 61.6389 24.256 61.5269 24.172C61.4149 24.0833 61.2585 24.039 61.0579 24.039C60.8665 24.039 60.7102 24.0833 60.5889 24.172C60.4722 24.2607 60.3859 24.375 60.3299 24.515C60.2785 24.6503 60.2482 24.7903 60.2389 24.935C60.2342 25.019 60.2319 25.1077 60.2319 25.201C60.2319 25.2943 60.2342 25.3853 60.2389 25.474C60.2435 25.614 60.2762 25.7493 60.3369 25.88C60.3975 26.006 60.4862 26.111 60.6029 26.195C60.7195 26.279 60.8712 26.321 61.0579 26.321ZM65.1687 27.07C64.6507 27.07 64.24 26.9207 63.9367 26.622C63.6333 26.3233 63.47 25.8987 63.4467 25.348C63.442 25.3013 63.4397 25.243 63.4397 25.173C63.4397 25.0983 63.442 25.04 63.4467 24.998C63.4653 24.648 63.5447 24.3447 63.6847 24.088C63.8293 23.8313 64.0277 23.6353 64.2797 23.5C64.5317 23.36 64.828 23.29 65.1687 23.29C65.5467 23.29 65.864 23.3693 66.1207 23.528C66.3773 23.682 66.571 23.899 66.7017 24.179C66.8323 24.4543 66.8977 24.774 66.8977 25.138V25.285C66.8977 25.3317 66.8813 25.3713 66.8487 25.404C66.816 25.4367 66.774 25.453 66.7227 25.453H64.3987C64.3987 25.453 64.3987 25.46 64.3987 25.474C64.3987 25.488 64.3987 25.4997 64.3987 25.509C64.4033 25.6723 64.4337 25.824 64.4897 25.964C64.5503 26.0993 64.6367 26.209 64.7487 26.293C64.8653 26.377 65.003 26.419 65.1617 26.419C65.2923 26.419 65.402 26.4003 65.4907 26.363C65.5793 26.321 65.6517 26.2743 65.7077 26.223C65.7637 26.1717 65.8033 26.1297 65.8267 26.097C65.8687 26.041 65.9013 26.0083 65.9247 25.999C65.9527 25.985 65.9923 25.978 66.0437 25.978H66.6457C66.6923 25.978 66.7297 25.992 66.7577 26.02C66.7903 26.048 66.8043 26.083 66.7997 26.125C66.795 26.1997 66.7553 26.2907 66.6807 26.398C66.6107 26.5053 66.508 26.6103 66.3727 26.713C66.2373 26.8157 66.067 26.902 65.8617 26.972C65.661 27.0373 65.43 27.07 65.1687 27.07ZM64.3987 24.865H65.9457V24.844C65.9457 24.662 65.9153 24.5033 65.8547 24.368C65.794 24.2327 65.7053 24.1253 65.5887 24.046C65.472 23.9667 65.332 23.927 65.1687 23.927C65.0053 23.927 64.8653 23.9667 64.7487 24.046C64.632 24.1253 64.5433 24.2327 64.4827 24.368C64.4267 24.5033 64.3987 24.662 64.3987 24.844V24.865ZM67.8087 27C67.762 27 67.7224 26.9837 67.6897 26.951C67.657 26.9183 67.6407 26.8787 67.6407 26.832V23.535C67.6407 23.4837 67.657 23.4417 67.6897 23.409C67.7224 23.3763 67.762 23.36 67.8087 23.36H68.3757C68.4224 23.36 68.462 23.3763 68.4947 23.409C68.532 23.4417 68.5507 23.4837 68.5507 23.535V23.822C68.658 23.6727 68.7957 23.5583 68.9637 23.479C69.1364 23.3997 69.3347 23.36 69.5587 23.36H69.8457C69.897 23.36 69.9367 23.3763 69.9647 23.409C69.9974 23.4417 70.0137 23.4813 70.0137 23.528V24.032C70.0137 24.0787 69.9974 24.1183 69.9647 24.151C69.9367 24.1837 69.897 24.2 69.8457 24.2H69.2997C69.0757 24.2 68.9007 24.263 68.7747 24.389C68.6534 24.515 68.5927 24.6877 68.5927 24.907V26.832C68.5927 26.8787 68.5764 26.9183 68.5437 26.951C68.511 26.9837 68.469 27 68.4177 27H67.8087ZM72.2679 27C72.2165 27 72.1745 26.9837 72.1419 26.951C72.1092 26.9183 72.0929 26.8787 72.0929 26.832V22.275C72.0929 22.2237 72.1092 22.1817 72.1419 22.149C72.1745 22.1163 72.2165 22.1 72.2679 22.1H72.8209C72.8862 22.1 72.9352 22.1187 72.9679 22.156C73.0005 22.1887 73.0215 22.2143 73.0309 22.233L74.3819 24.753L75.7469 22.233C75.7562 22.2143 75.7772 22.1887 75.8099 22.156C75.8425 22.1187 75.8915 22.1 75.9569 22.1H76.5029C76.5542 22.1 76.5962 22.1163 76.6289 22.149C76.6615 22.1817 76.6779 22.2237 76.6779 22.275V26.832C76.6779 26.8787 76.6615 26.9183 76.6289 26.951C76.5962 26.9837 76.5542 27 76.5029 27H75.9149C75.8635 27 75.8215 26.9837 75.7889 26.951C75.7609 26.9183 75.7469 26.8787 75.7469 26.832V23.801L74.7669 25.67C74.7435 25.712 74.7132 25.7493 74.6759 25.782C74.6385 25.81 74.5895 25.824 74.5289 25.824H74.2419C74.1765 25.824 74.1252 25.81 74.0879 25.782C74.0552 25.7493 74.0272 25.712 74.0039 25.67L73.0239 23.801V26.832C73.0239 26.8787 73.0075 26.9183 72.9749 26.951C72.9422 26.9837 72.9025 27 72.8559 27H72.2679ZM78.7397 27.07C78.497 27.07 78.2777 27.0233 78.0817 26.93C77.8857 26.832 77.7294 26.7037 77.6127 26.545C77.5007 26.3817 77.4447 26.1997 77.4447 25.999C77.4447 25.6723 77.5754 25.4133 77.8367 25.222C78.1027 25.026 78.4527 24.8953 78.8867 24.83L79.8457 24.69V24.543C79.8457 24.347 79.7967 24.1953 79.6987 24.088C79.6007 23.9807 79.4327 23.927 79.1947 23.927C79.0267 23.927 78.889 23.962 78.7817 24.032C78.679 24.0973 78.602 24.186 78.5507 24.298C78.5134 24.3587 78.4597 24.389 78.3897 24.389H77.8367C77.7854 24.389 77.7457 24.375 77.7177 24.347C77.6944 24.319 77.6827 24.2817 77.6827 24.235C77.6874 24.1603 77.7177 24.0693 77.7737 23.962C77.8297 23.8547 77.9184 23.752 78.0397 23.654C78.161 23.5513 78.3174 23.465 78.5087 23.395C78.7 23.325 78.931 23.29 79.2017 23.29C79.4957 23.29 79.743 23.3273 79.9437 23.402C80.149 23.472 80.3124 23.5677 80.4337 23.689C80.555 23.8103 80.6437 23.9527 80.6997 24.116C80.7557 24.2793 80.7837 24.452 80.7837 24.634V26.832C80.7837 26.8787 80.7674 26.9183 80.7347 26.951C80.702 26.9837 80.6624 27 80.6157 27H80.0487C79.9974 27 79.9554 26.9837 79.9227 26.951C79.8947 26.9183 79.8807 26.8787 79.8807 26.832V26.559C79.82 26.6477 79.7384 26.7317 79.6357 26.811C79.533 26.8857 79.407 26.9487 79.2577 27C79.113 27.0467 78.9404 27.07 78.7397 27.07ZM78.9777 26.405C79.141 26.405 79.288 26.37 79.4187 26.3C79.554 26.23 79.659 26.1227 79.7337 25.978C79.813 25.8287 79.8527 25.642 79.8527 25.418V25.271L79.1527 25.383C78.8774 25.425 78.672 25.4927 78.5367 25.586C78.4014 25.6793 78.3337 25.7937 78.3337 25.929C78.3337 26.0317 78.364 26.1203 78.4247 26.195C78.49 26.265 78.5717 26.3187 78.6697 26.356C78.7677 26.3887 78.8704 26.405 78.9777 26.405ZM81.8497 27C81.8031 27 81.7634 26.9837 81.7307 26.951C81.6981 26.9183 81.6817 26.8787 81.6817 26.832V23.535C81.6817 23.4837 81.6981 23.4417 81.7307 23.409C81.7634 23.3763 81.8031 23.36 81.8497 23.36H82.4167C82.4634 23.36 82.5031 23.3763 82.5357 23.409C82.5731 23.4417 82.5917 23.4837 82.5917 23.535V23.822C82.6991 23.6727 82.8367 23.5583 83.0047 23.479C83.1774 23.3997 83.3757 23.36 83.5997 23.36H83.8867C83.9381 23.36 83.9777 23.3763 84.0057 23.409C84.0384 23.4417 84.0547 23.4813 84.0547 23.528V24.032C84.0547 24.0787 84.0384 24.1183 84.0057 24.151C83.9777 24.1837 83.9381 24.2 83.8867 24.2H83.3407C83.1167 24.2 82.9417 24.263 82.8157 24.389C82.6944 24.515 82.6337 24.6877 82.6337 24.907V26.832C82.6337 26.8787 82.6174 26.9183 82.5847 26.951C82.5521 26.9837 82.5101 27 82.4587 27H81.8497ZM84.7757 27C84.729 27 84.6893 26.9837 84.6567 26.951C84.624 26.9183 84.6077 26.8787 84.6077 26.832V22.198C84.6077 22.1513 84.624 22.1117 84.6567 22.079C84.6893 22.0463 84.729 22.03 84.7757 22.03H85.3427C85.394 22.03 85.4337 22.0463 85.4617 22.079C85.4943 22.1117 85.5107 22.1513 85.5107 22.198V24.592L86.6867 23.479C86.7287 23.4417 86.766 23.4137 86.7987 23.395C86.8313 23.3717 86.8803 23.36 86.9457 23.36H87.5967C87.6433 23.36 87.6807 23.374 87.7087 23.402C87.7367 23.43 87.7507 23.4673 87.7507 23.514C87.7507 23.5327 87.746 23.5537 87.7367 23.577C87.7273 23.6003 87.7087 23.6213 87.6807 23.64L86.2387 24.991L87.8557 26.727C87.9023 26.7737 87.9257 26.8133 87.9257 26.846C87.9257 26.8927 87.9093 26.93 87.8767 26.958C87.8487 26.986 87.8137 27 87.7717 27H87.1067C87.0367 27 86.9853 26.9907 86.9527 26.972C86.9247 26.9487 86.8897 26.9183 86.8477 26.881L85.5107 25.474V26.832C85.5107 26.8787 85.4943 26.9183 85.4617 26.951C85.4337 26.9837 85.394 27 85.3427 27H84.7757ZM89.8464 27.07C89.3284 27.07 88.9177 26.9207 88.6144 26.622C88.3111 26.3233 88.1477 25.8987 88.1244 25.348C88.1197 25.3013 88.1174 25.243 88.1174 25.173C88.1174 25.0983 88.1197 25.04 88.1244 24.998C88.1431 24.648 88.2224 24.3447 88.3624 24.088C88.5071 23.8313 88.7054 23.6353 88.9574 23.5C89.2094 23.36 89.5057 23.29 89.8464 23.29C90.2244 23.29 90.5417 23.3693 90.7984 23.528C91.0551 23.682 91.2487 23.899 91.3794 24.179C91.5101 24.4543 91.5754 24.774 91.5754 25.138V25.285C91.5754 25.3317 91.5591 25.3713 91.5264 25.404C91.4937 25.4367 91.4517 25.453 91.4004 25.453H89.0764C89.0764 25.453 89.0764 25.46 89.0764 25.474C89.0764 25.488 89.0764 25.4997 89.0764 25.509C89.0811 25.6723 89.1114 25.824 89.1674 25.964C89.2281 26.0993 89.3144 26.209 89.4264 26.293C89.5431 26.377 89.6807 26.419 89.8394 26.419C89.9701 26.419 90.0797 26.4003 90.1684 26.363C90.2571 26.321 90.3294 26.2743 90.3854 26.223C90.4414 26.1717 90.4811 26.1297 90.5044 26.097C90.5464 26.041 90.5791 26.0083 90.6024 25.999C90.6304 25.985 90.6701 25.978 90.7214 25.978H91.3234C91.3701 25.978 91.4074 25.992 91.4354 26.02C91.4681 26.048 91.4821 26.083 91.4774 26.125C91.4727 26.1997 91.4331 26.2907 91.3584 26.398C91.2884 26.5053 91.1857 26.6103 91.0504 26.713C90.9151 26.8157 90.7447 26.902 90.5394 26.972C90.3387 27.0373 90.1077 27.07 89.8464 27.07ZM89.0764 24.865H90.6234V24.844C90.6234 24.662 90.5931 24.5033 90.5324 24.368C90.4717 24.2327 90.3831 24.1253 90.2664 24.046C90.1497 23.9667 90.0097 23.927 89.8464 23.927C89.6831 23.927 89.5431 23.9667 89.4264 24.046C89.3097 24.1253 89.2211 24.2327 89.1604 24.368C89.1044 24.5033 89.0764 24.662 89.0764 24.844V24.865ZM93.9498 27C93.6698 27 93.4341 26.951 93.2428 26.853C93.0514 26.755 92.9091 26.6103 92.8158 26.419C92.7224 26.223 92.6758 25.9803 92.6758 25.691V24.102H92.1228C92.0761 24.102 92.0364 24.0857 92.0038 24.053C91.9711 24.0203 91.9548 23.9807 91.9548 23.934V23.528C91.9548 23.4813 91.9711 23.4417 92.0038 23.409C92.0364 23.3763 92.0761 23.36 92.1228 23.36H92.6758V22.198C92.6758 22.1513 92.6898 22.1117 92.7178 22.079C92.7504 22.0463 92.7924 22.03 92.8438 22.03H93.4108C93.4574 22.03 93.4971 22.0463 93.5298 22.079C93.5624 22.1117 93.5788 22.1513 93.5788 22.198V23.36H94.4538C94.5004 23.36 94.5401 23.3763 94.5728 23.409C94.6054 23.4417 94.6218 23.4813 94.6218 23.528V23.934C94.6218 23.9807 94.6054 24.0203 94.5728 24.053C94.5401 24.0857 94.5004 24.102 94.4538 24.102H93.5788V25.621C93.5788 25.8123 93.6114 25.9617 93.6768 26.069C93.7468 26.1763 93.8658 26.23 94.0338 26.23H94.5168C94.5634 26.23 94.6031 26.2463 94.6358 26.279C94.6684 26.3117 94.6848 26.3513 94.6848 26.398V26.832C94.6848 26.8787 94.6684 26.9183 94.6358 26.951C94.6031 26.9837 94.5634 27 94.5168 27H93.9498ZM98.6904 27.07C98.2564 27.07 97.8924 27.007 97.5984 26.881C97.309 26.7503 97.0874 26.5823 96.9334 26.377C96.784 26.167 96.7047 25.9477 96.6954 25.719C96.6954 25.677 96.7094 25.642 96.7374 25.614C96.7654 25.586 96.8004 25.572 96.8424 25.572H97.4654C97.526 25.572 97.5704 25.586 97.5984 25.614C97.631 25.6373 97.659 25.6677 97.6824 25.705C97.7104 25.7937 97.764 25.8823 97.8434 25.971C97.9227 26.055 98.03 26.125 98.1654 26.181C98.3054 26.237 98.4804 26.265 98.6904 26.265C99.0264 26.265 99.276 26.209 99.4394 26.097C99.6074 25.985 99.6914 25.8333 99.6914 25.642C99.6914 25.5067 99.647 25.3993 99.5584 25.32C99.4697 25.236 99.332 25.1613 99.1454 25.096C98.9634 25.026 98.7207 24.9537 98.4174 24.879C98.0674 24.795 97.7734 24.6947 97.5354 24.578C97.302 24.4567 97.1247 24.305 97.0034 24.123C96.8867 23.941 96.8284 23.71 96.8284 23.43C96.8284 23.1593 96.9007 22.919 97.0454 22.709C97.1947 22.499 97.4047 22.3333 97.6754 22.212C97.9507 22.0907 98.2774 22.03 98.6554 22.03C98.9587 22.03 99.227 22.072 99.4604 22.156C99.6937 22.2353 99.8874 22.3427 100.041 22.478C100.195 22.6087 100.312 22.751 100.391 22.905C100.475 23.0543 100.52 23.2013 100.524 23.346C100.524 23.3833 100.51 23.4183 100.482 23.451C100.459 23.479 100.424 23.493 100.377 23.493H99.7264C99.689 23.493 99.6517 23.4837 99.6144 23.465C99.577 23.4463 99.5467 23.4113 99.5234 23.36C99.4954 23.2153 99.4044 23.0917 99.2504 22.989C99.0964 22.8863 98.898 22.835 98.6554 22.835C98.4034 22.835 98.2004 22.8817 98.0464 22.975C97.8924 23.0683 97.8154 23.213 97.8154 23.409C97.8154 23.5397 97.8527 23.6493 97.9274 23.738C98.0067 23.822 98.1304 23.8967 98.2984 23.962C98.471 24.0273 98.6974 24.0973 98.9774 24.172C99.374 24.2607 99.6984 24.3633 99.9504 24.48C100.202 24.5967 100.387 24.746 100.503 24.928C100.62 25.1053 100.678 25.3317 100.678 25.607C100.678 25.915 100.594 26.1787 100.426 26.398C100.263 26.6127 100.032 26.7783 99.7334 26.895C99.4347 27.0117 99.087 27.07 98.6904 27.07ZM103.042 27C102.762 27 102.526 26.951 102.335 26.853C102.143 26.755 102.001 26.6103 101.908 26.419C101.814 26.223 101.768 25.9803 101.768 25.691V24.102H101.215C101.168 24.102 101.128 24.0857 101.096 24.053C101.063 24.0203 101.047 23.9807 101.047 23.934V23.528C101.047 23.4813 101.063 23.4417 101.096 23.409C101.128 23.3763 101.168 23.36 101.215 23.36H101.768V22.198C101.768 22.1513 101.782 22.1117 101.81 22.079C101.842 22.0463 101.884 22.03 101.936 22.03H102.503C102.549 22.03 102.589 22.0463 102.622 22.079C102.654 22.1117 102.671 22.1513 102.671 22.198V23.36H103.546C103.592 23.36 103.632 23.3763 103.665 23.409C103.697 23.4417 103.714 23.4813 103.714 23.528V23.934C103.714 23.9807 103.697 24.0203 103.665 24.053C103.632 24.0857 103.592 24.102 103.546 24.102H102.671V25.621C102.671 25.8123 102.703 25.9617 102.769 26.069C102.839 26.1763 102.958 26.23 103.126 26.23H103.609C103.655 26.23 103.695 26.2463 103.728 26.279C103.76 26.3117 103.777 26.3513 103.777 26.398V26.832C103.777 26.8787 103.76 26.9183 103.728 26.951C103.695 26.9837 103.655 27 103.609 27H103.042ZM106.008 27.07C105.634 27.07 105.319 27.0047 105.063 26.874C104.811 26.7433 104.617 26.559 104.482 26.321C104.351 26.083 104.276 25.8053 104.258 25.488C104.253 25.404 104.251 25.3013 104.251 25.18C104.251 25.0587 104.253 24.956 104.258 24.872C104.276 24.55 104.353 24.2723 104.489 24.039C104.629 23.801 104.825 23.6167 105.077 23.486C105.333 23.3553 105.644 23.29 106.008 23.29C106.372 23.29 106.68 23.3553 106.932 23.486C107.188 23.6167 107.384 23.801 107.52 24.039C107.66 24.2723 107.739 24.55 107.758 24.872C107.762 24.956 107.765 25.0587 107.765 25.18C107.765 25.3013 107.762 25.404 107.758 25.488C107.739 25.8053 107.662 26.083 107.527 26.321C107.396 26.559 107.202 26.7433 106.946 26.874C106.694 27.0047 106.381 27.07 106.008 27.07ZM106.008 26.377C106.255 26.377 106.446 26.3 106.582 26.146C106.717 25.9873 106.792 25.7563 106.806 25.453C106.81 25.383 106.813 25.292 106.813 25.18C106.813 25.068 106.81 24.977 106.806 24.907C106.792 24.6083 106.717 24.3797 106.582 24.221C106.446 24.0623 106.255 23.983 106.008 23.983C105.76 23.983 105.569 24.0623 105.434 24.221C105.298 24.3797 105.224 24.6083 105.21 24.907C105.205 24.977 105.203 25.068 105.203 25.18C105.203 25.292 105.205 25.383 105.21 25.453C105.224 25.7563 105.298 25.9873 105.434 26.146C105.569 26.3 105.76 26.377 106.008 26.377ZM108.708 27C108.661 27 108.622 26.9837 108.589 26.951C108.556 26.9183 108.54 26.8787 108.54 26.832V23.535C108.54 23.4837 108.556 23.4417 108.589 23.409C108.622 23.3763 108.661 23.36 108.708 23.36H109.275C109.322 23.36 109.361 23.3763 109.394 23.409C109.431 23.4417 109.45 23.4837 109.45 23.535V23.822C109.557 23.6727 109.695 23.5583 109.863 23.479C110.036 23.3997 110.234 23.36 110.458 23.36H110.745C110.796 23.36 110.836 23.3763 110.864 23.409C110.897 23.4417 110.913 23.4813 110.913 23.528V24.032C110.913 24.0787 110.897 24.1183 110.864 24.151C110.836 24.1837 110.796 24.2 110.745 24.2H110.199C109.975 24.2 109.8 24.263 109.674 24.389C109.553 24.515 109.492 24.6877 109.492 24.907V26.832C109.492 26.8787 109.476 26.9183 109.443 26.951C109.41 26.9837 109.368 27 109.317 27H108.708ZM112.979 27.07C112.461 27.07 112.051 26.9207 111.747 26.622C111.444 26.3233 111.281 25.8987 111.257 25.348C111.253 25.3013 111.25 25.243 111.25 25.173C111.25 25.0983 111.253 25.04 111.257 24.998C111.276 24.648 111.355 24.3447 111.495 24.088C111.64 23.8313 111.838 23.6353 112.09 23.5C112.342 23.36 112.639 23.29 112.979 23.29C113.357 23.29 113.675 23.3693 113.931 23.528C114.188 23.682 114.382 23.899 114.512 24.179C114.643 24.4543 114.708 24.774 114.708 25.138V25.285C114.708 25.3317 114.692 25.3713 114.659 25.404C114.627 25.4367 114.585 25.453 114.533 25.453H112.209C112.209 25.453 112.209 25.46 112.209 25.474C112.209 25.488 112.209 25.4997 112.209 25.509C112.214 25.6723 112.244 25.824 112.3 25.964C112.361 26.0993 112.447 26.209 112.559 26.293C112.676 26.377 112.814 26.419 112.972 26.419C113.103 26.419 113.213 26.4003 113.301 26.363C113.39 26.321 113.462 26.2743 113.518 26.223C113.574 26.1717 113.614 26.1297 113.637 26.097C113.679 26.041 113.712 26.0083 113.735 25.999C113.763 25.985 113.803 25.978 113.854 25.978H114.456C114.503 25.978 114.54 25.992 114.568 26.02C114.601 26.048 114.615 26.083 114.61 26.125C114.606 26.1997 114.566 26.2907 114.491 26.398C114.421 26.5053 114.319 26.6103 114.183 26.713C114.048 26.8157 113.878 26.902 113.672 26.972C113.472 27.0373 113.241 27.07 112.979 27.07ZM112.209 24.865H113.756V24.844C113.756 24.662 113.726 24.5033 113.665 24.368C113.605 24.2327 113.516 24.1253 113.399 24.046C113.283 23.9667 113.143 23.927 112.979 23.927C112.816 23.927 112.676 23.9667 112.559 24.046C112.443 24.1253 112.354 24.2327 112.293 24.368C112.237 24.5033 112.209 24.662 112.209 24.844V24.865Z" fill="white"/>
<path d="M40.196 16C40.0147 16 39.8673 15.949 39.754 15.847C39.652 15.745 39.5897 15.6203 39.567 15.473L37.629 4.576C37.6177 4.55333 37.612 4.53067 37.612 4.508C37.612 4.48533 37.612 4.46833 37.612 4.457C37.612 4.36633 37.646 4.287 37.714 4.219C37.782 4.13967 37.867 4.1 37.969 4.1H39.754C40.0487 4.1 40.213 4.219 40.247 4.457L41.522 11.648L42.899 7.177C42.933 7.08633 42.9897 6.99 43.069 6.888C43.1483 6.786 43.2787 6.735 43.46 6.735H44.531C44.7123 6.735 44.8427 6.786 44.922 6.888C45.0013 6.99 45.0523 7.08633 45.075 7.177L46.469 11.631L47.727 4.457C47.761 4.219 47.931 4.1 48.237 4.1H50.022C50.124 4.1 50.209 4.13967 50.277 4.219C50.345 4.287 50.379 4.36633 50.379 4.457C50.379 4.46833 50.379 4.48533 50.379 4.508C50.379 4.53067 50.3733 4.55333 50.362 4.576L48.424 15.473C48.4013 15.6203 48.3333 15.745 48.22 15.847C48.118 15.949 47.9763 16 47.795 16H46.418C46.2367 16 46.095 15.9547 45.993 15.864C45.9023 15.762 45.84 15.66 45.806 15.558L43.987 10.288L42.185 15.558C42.151 15.66 42.083 15.762 41.981 15.864C41.8903 15.9547 41.7487 16 41.556 16H40.196ZM54.3185 16.17C53.7178 16.17 53.1795 16.0567 52.7035 15.83C52.2275 15.592 51.8478 15.2747 51.5645 14.878C51.2812 14.4813 51.1395 14.0393 51.1395 13.552C51.1395 12.7473 51.4625 12.1127 52.1085 11.648C52.7658 11.1833 53.6272 10.866 54.6925 10.696L56.9195 10.373V10.067C56.9195 9.625 56.8175 9.285 56.6135 9.047C56.4095 8.809 56.0525 8.69 55.5425 8.69C55.1685 8.69 54.8682 8.76367 54.6415 8.911C54.4148 9.05833 54.2392 9.251 54.1145 9.489C54.0238 9.63633 53.8935 9.71 53.7235 9.71H52.1085C51.9838 9.71 51.8875 9.676 51.8195 9.608C51.7515 9.52867 51.7232 9.438 51.7345 9.336C51.7345 9.14333 51.8082 8.91667 51.9555 8.656C52.1028 8.39533 52.3295 8.14033 52.6355 7.891C52.9415 7.63033 53.3325 7.415 53.8085 7.245C54.2845 7.075 54.8682 6.99 55.5595 6.99C56.2735 6.99 56.8855 7.075 57.3955 7.245C57.9055 7.415 58.3135 7.653 58.6195 7.959C58.9255 8.265 59.1522 8.622 59.2995 9.03C59.4468 9.42667 59.5205 9.85733 59.5205 10.322V15.575C59.5205 15.6997 59.4808 15.8017 59.4015 15.881C59.3222 15.9603 59.2202 16 59.0955 16H57.4295C57.3162 16 57.2198 15.9603 57.1405 15.881C57.0612 15.8017 57.0215 15.6997 57.0215 15.575V14.946C56.8742 15.1613 56.6758 15.3653 56.4265 15.558C56.1772 15.7393 55.8768 15.8867 55.5255 16C55.1855 16.1133 54.7832 16.17 54.3185 16.17ZM54.9985 14.402C55.3725 14.402 55.7068 14.3227 56.0015 14.164C56.2962 14.0053 56.5285 13.7617 56.6985 13.433C56.8685 13.1043 56.9535 12.6907 56.9535 12.192V11.903L55.3725 12.158C54.7605 12.26 54.3128 12.413 54.0295 12.617C53.7462 12.821 53.6045 13.0703 53.6045 13.365C53.6045 13.5803 53.6668 13.7673 53.7915 13.926C53.9275 14.0847 54.1032 14.2037 54.3185 14.283C54.5338 14.3623 54.7605 14.402 54.9985 14.402ZM61.9868 16C61.8735 16 61.7771 15.9603 61.6978 15.881C61.6185 15.8017 61.5788 15.6997 61.5788 15.575V7.585C61.5788 7.47167 61.6185 7.37533 61.6978 7.296C61.7771 7.20533 61.8735 7.16 61.9868 7.16H63.6528C63.7661 7.16 63.8625 7.20533 63.9418 7.296C64.0325 7.37533 64.0778 7.47167 64.0778 7.585V8.265C64.3611 7.91367 64.7068 7.64167 65.1148 7.449C65.5341 7.25633 66.0158 7.16 66.5598 7.16H67.2908C67.4041 7.16 67.5005 7.19967 67.5798 7.279C67.6591 7.35833 67.6988 7.46033 67.6988 7.585V9.047C67.6988 9.17167 67.6591 9.27367 67.5798 9.353C67.5005 9.43233 67.4041 9.472 67.2908 9.472H65.7948C65.2961 9.472 64.9051 9.61367 64.6218 9.897C64.3385 10.169 64.1968 10.56 64.1968 11.07V15.575C64.1968 15.6997 64.1571 15.8017 64.0778 15.881C63.9985 15.9603 63.8965 16 63.7718 16H61.9868ZM72.8109 16.17C71.5076 16.17 70.4706 15.8073 69.6999 15.082C68.9406 14.3567 68.5382 13.3027 68.4929 11.92C68.4929 11.8293 68.4929 11.7103 68.4929 11.563C68.4929 11.4043 68.4929 11.2797 68.4929 11.189C68.5382 10.3163 68.7366 9.56833 69.0879 8.945C69.4392 8.31033 69.9322 7.82867 70.5669 7.5C71.2016 7.16 71.9439 6.99 72.7939 6.99C73.7459 6.99 74.5392 7.18833 75.1739 7.585C75.8199 7.97033 76.3016 8.503 76.6189 9.183C76.9476 9.85167 77.1119 10.6223 77.1119 11.495V11.886C77.1119 11.9993 77.0666 12.0957 76.9759 12.175C76.8966 12.2543 76.8002 12.294 76.6869 12.294H71.1279C71.1279 12.3053 71.1279 12.328 71.1279 12.362C71.1279 12.3847 71.1279 12.4073 71.1279 12.43C71.1392 12.7927 71.2072 13.127 71.3319 13.433C71.4679 13.7277 71.6549 13.9657 71.8929 14.147C72.1422 14.3283 72.4369 14.419 72.7769 14.419C73.0602 14.419 73.2926 14.3793 73.4739 14.3C73.6552 14.2207 73.8026 14.1243 73.9159 14.011C74.0406 13.8977 74.1312 13.8013 74.1879 13.722C74.2899 13.6087 74.3692 13.5407 74.4259 13.518C74.4939 13.484 74.5959 13.467 74.7319 13.467H76.4999C76.6132 13.467 76.7039 13.501 76.7719 13.569C76.8512 13.6257 76.8852 13.7107 76.8739 13.824C76.8626 14.0053 76.7662 14.232 76.5849 14.504C76.4149 14.7647 76.1599 15.0253 75.8199 15.286C75.4799 15.5353 75.0549 15.745 74.5449 15.915C74.0462 16.085 73.4682 16.17 72.8109 16.17ZM71.1279 10.747H74.4599V10.713C74.4599 10.305 74.3919 9.95367 74.2559 9.659C74.1312 9.353 73.9442 9.115 73.6949 8.945C73.4456 8.775 73.1452 8.69 72.7939 8.69C72.4426 8.69 72.1422 8.775 71.8929 8.945C71.6436 9.115 71.4509 9.353 71.3149 9.659C71.1902 9.95367 71.1279 10.305 71.1279 10.713V10.747ZM79.2362 16C79.1116 16 79.0096 15.9603 78.9302 15.881C78.8509 15.8017 78.8112 15.6997 78.8112 15.575V4.355C78.8112 4.23033 78.8509 4.12833 78.9302 4.049C79.0096 3.96967 79.1116 3.93 79.2362 3.93H81.0722C81.1856 3.93 81.2819 3.96967 81.3612 4.049C81.4406 4.12833 81.4802 4.23033 81.4802 4.355V8.18C81.7862 7.81733 82.1602 7.52833 82.6022 7.313C83.0442 7.09767 83.5769 6.99 84.2002 6.99C84.8689 6.99 85.4582 7.143 85.9682 7.449C86.4896 7.74367 86.8976 8.18 87.1922 8.758C87.4869 9.32467 87.6342 10.016 87.6342 10.832V15.575C87.6342 15.6997 87.5946 15.8017 87.5152 15.881C87.4359 15.9603 87.3339 16 87.2092 16H85.3562C85.2429 16 85.1466 15.9603 85.0672 15.881C84.9879 15.8017 84.9482 15.6997 84.9482 15.575V10.934C84.9482 10.3333 84.8009 9.86867 84.5062 9.54C84.2116 9.2 83.7922 9.03 83.2482 9.03C82.7156 9.03 82.2849 9.2 81.9562 9.54C81.6389 9.86867 81.4802 10.3333 81.4802 10.934V15.575C81.4802 15.6997 81.4406 15.8017 81.3612 15.881C81.2819 15.9603 81.1856 16 81.0722 16H79.2362ZM93.7147 16.17C92.774 16.17 91.9863 16.017 91.3517 15.711C90.717 15.3937 90.2297 14.946 89.8897 14.368C89.561 13.79 89.3797 13.1157 89.3457 12.345C89.3343 12.1183 89.3287 11.8633 89.3287 11.58C89.3287 11.2853 89.3343 11.0303 89.3457 10.815C89.3797 10.033 89.5723 9.35867 89.9237 8.792C90.275 8.214 90.768 7.772 91.4027 7.466C92.0373 7.14867 92.808 6.99 93.7147 6.99C94.61 6.99 95.375 7.14867 96.0097 7.466C96.6443 7.772 97.1373 8.214 97.4887 8.792C97.84 9.35867 98.0327 10.033 98.0667 10.815C98.0893 11.0303 98.1007 11.2853 98.1007 11.58C98.1007 11.8633 98.0893 12.1183 98.0667 12.345C98.0327 13.1157 97.8457 13.79 97.5057 14.368C97.177 14.946 96.6953 15.3937 96.0607 15.711C95.426 16.017 94.644 16.17 93.7147 16.17ZM93.7147 14.3C94.27 14.3 94.6893 14.13 94.9727 13.79C95.256 13.4387 95.409 12.9287 95.4317 12.26C95.443 12.09 95.4487 11.8633 95.4487 11.58C95.4487 11.2967 95.443 11.07 95.4317 10.9C95.409 10.2427 95.256 9.73833 94.9727 9.387C94.6893 9.03567 94.27 8.86 93.7147 8.86C93.1593 8.86 92.7343 9.03567 92.4397 9.387C92.1563 9.73833 92.0033 10.2427 91.9807 10.9C91.9693 11.07 91.9637 11.2967 91.9637 11.58C91.9637 11.8633 91.9693 12.09 91.9807 12.26C92.0033 12.9287 92.1563 13.4387 92.4397 13.79C92.7343 14.13 93.1593 14.3 93.7147 14.3ZM103.126 16.17C102.468 16.17 101.885 16.0227 101.375 15.728C100.876 15.422 100.485 14.9857 100.202 14.419C99.9296 13.841 99.7936 13.144 99.7936 12.328V7.585C99.7936 7.46033 99.8333 7.35833 99.9126 7.279C99.992 7.19967 100.088 7.16 100.202 7.16H102.004C102.128 7.16 102.23 7.19967 102.31 7.279C102.389 7.35833 102.429 7.46033 102.429 7.585V12.226C102.429 13.4953 102.984 14.13 104.095 14.13C104.627 14.13 105.047 13.9657 105.353 13.637C105.67 13.297 105.829 12.8267 105.829 12.226V7.585C105.829 7.46033 105.868 7.35833 105.948 7.279C106.027 7.19967 106.129 7.16 106.254 7.16H108.056C108.169 7.16 108.265 7.19967 108.345 7.279C108.424 7.35833 108.464 7.46033 108.464 7.585V15.575C108.464 15.6997 108.424 15.8017 108.345 15.881C108.265 15.9603 108.169 16 108.056 16H106.39C106.265 16 106.163 15.9603 106.084 15.881C106.004 15.8017 105.965 15.6997 105.965 15.575V14.912C105.67 15.32 105.29 15.6317 104.826 15.847C104.361 16.0623 103.794 16.17 103.126 16.17ZM114.088 16.17C113.386 16.17 112.779 16.0907 112.269 15.932C111.771 15.762 111.363 15.558 111.045 15.32C110.739 15.082 110.507 14.844 110.348 14.606C110.201 14.3567 110.122 14.147 110.11 13.977C110.099 13.8523 110.139 13.7503 110.229 13.671C110.32 13.5917 110.411 13.552 110.501 13.552H112.15C112.184 13.552 112.218 13.5577 112.252 13.569C112.286 13.5803 112.32 13.6087 112.354 13.654C112.502 13.756 112.655 13.875 112.813 14.011C112.972 14.1357 113.153 14.2433 113.357 14.334C113.573 14.4247 113.839 14.47 114.156 14.47C114.53 14.47 114.848 14.3963 115.108 14.249C115.369 14.0903 115.499 13.8693 115.499 13.586C115.499 13.382 115.437 13.212 115.312 13.076C115.199 12.94 114.978 12.8153 114.649 12.702C114.321 12.5887 113.833 12.464 113.187 12.328C112.575 12.192 112.054 12.0107 111.623 11.784C111.193 11.5573 110.87 11.274 110.654 10.934C110.439 10.5827 110.331 10.1633 110.331 9.676C110.331 9.234 110.467 8.809 110.739 8.401C111.023 7.993 111.436 7.65867 111.98 7.398C112.524 7.126 113.204 6.99 114.02 6.99C114.644 6.99 115.188 7.06933 115.652 7.228C116.128 7.37533 116.525 7.568 116.842 7.806C117.16 8.03267 117.398 8.27067 117.556 8.52C117.726 8.758 117.817 8.96767 117.828 9.149C117.84 9.26233 117.806 9.35867 117.726 9.438C117.647 9.51733 117.556 9.557 117.454 9.557H115.941C115.885 9.557 115.834 9.55133 115.788 9.54C115.743 9.51733 115.703 9.489 115.669 9.455C115.533 9.36433 115.392 9.26233 115.244 9.149C115.108 9.02433 114.944 8.91667 114.751 8.826C114.559 8.73533 114.309 8.69 114.003 8.69C113.629 8.69 113.34 8.775 113.136 8.945C112.944 9.10367 112.847 9.30767 112.847 9.557C112.847 9.71567 112.898 9.863 113 9.999C113.102 10.135 113.312 10.2597 113.629 10.373C113.947 10.4863 114.428 10.6053 115.074 10.73C115.845 10.866 116.457 11.07 116.91 11.342C117.364 11.614 117.687 11.9313 117.879 12.294C118.083 12.6453 118.185 13.025 118.185 13.433C118.185 13.9657 118.027 14.4417 117.709 14.861C117.392 15.269 116.927 15.592 116.315 15.83C115.715 16.0567 114.972 16.17 114.088 16.17ZM123.761 16.17C122.458 16.17 121.421 15.8073 120.65 15.082C119.891 14.3567 119.488 13.3027 119.443 11.92C119.443 11.8293 119.443 11.7103 119.443 11.563C119.443 11.4043 119.443 11.2797 119.443 11.189C119.488 10.3163 119.687 9.56833 120.038 8.945C120.389 8.31033 120.882 7.82867 121.517 7.5C122.152 7.16 122.894 6.99 123.744 6.99C124.696 6.99 125.489 7.18833 126.124 7.585C126.77 7.97033 127.252 8.503 127.569 9.183C127.898 9.85167 128.062 10.6223 128.062 11.495V11.886C128.062 11.9993 128.017 12.0957 127.926 12.175C127.847 12.2543 127.75 12.294 127.637 12.294H122.078C122.078 12.3053 122.078 12.328 122.078 12.362C122.078 12.3847 122.078 12.4073 122.078 12.43C122.089 12.7927 122.157 13.127 122.282 13.433C122.418 13.7277 122.605 13.9657 122.843 14.147C123.092 14.3283 123.387 14.419 123.727 14.419C124.01 14.419 124.243 14.3793 124.424 14.3C124.605 14.2207 124.753 14.1243 124.866 14.011C124.991 13.8977 125.081 13.8013 125.138 13.722C125.24 13.6087 125.319 13.5407 125.376 13.518C125.444 13.484 125.546 13.467 125.682 13.467H127.45C127.563 13.467 127.654 13.501 127.722 13.569C127.801 13.6257 127.835 13.7107 127.824 13.824C127.813 14.0053 127.716 14.232 127.535 14.504C127.365 14.7647 127.11 15.0253 126.77 15.286C126.43 15.5353 126.005 15.745 125.495 15.915C124.996 16.085 124.418 16.17 123.761 16.17ZM122.078 10.747H125.41V10.713C125.41 10.305 125.342 9.95367 125.206 9.659C125.081 9.353 124.894 9.115 124.645 8.945C124.396 8.775 124.095 8.69 123.744 8.69C123.393 8.69 123.092 8.775 122.843 8.945C122.594 9.115 122.401 9.353 122.265 9.659C122.14 9.95367 122.078 10.305 122.078 10.713V10.747Z" fill="#314BC3"/>
<path d="M5.28488 6.55602L3.84155 9.11203L5.74066 12.2656C7.55296 15.2863 7.63978 15.4523 7.63978 15.9945C7.63978 16.5367 7.55296 16.7026 5.74066 19.7234L3.84155 22.8769L5.28488 25.4329L6.71735 28H13.4999L20.2824 27.9889L23.6466 22.0249C25.5023 18.7386 27.0107 16.0166 26.9999 15.9834C26.9999 15.9502 25.4806 13.2393 23.6357 9.95297L20.2824 4H13.4999H6.71735L5.28488 6.55602ZM12.6643 9.45505C12.8596 9.53251 14.4657 10.9378 16.2455 12.5643C18.7089 14.8216 19.4685 15.574 19.4685 15.7732C19.4685 16.1272 12.9898 22.0802 12.5015 22.1798C12.1108 22.2573 11.1124 22.2683 11.1124 22.1909C11.1124 22.1577 11.9698 20.7635 13.0115 19.0927C14.1076 17.3223 14.9107 15.9281 14.9107 15.7732C14.9107 15.6183 14.1185 14.2241 13.0658 12.509C12.0566 10.8603 11.221 9.46612 11.221 9.41079C11.221 9.24482 12.2628 9.27801 12.6643 9.45505Z" fill="url(#paint0_linear_1130_61)"/>
<path d="M1.30225 13.6154C0.586012 14.8769 0 15.9502 0 15.9944C0 16.1715 2.6045 20.6749 2.65876 20.6085C2.70216 20.5643 3.09284 19.6569 3.52692 18.5947C4.60128 15.9502 4.60128 16.0608 3.58118 13.5159C3.1254 12.3872 2.72387 11.4356 2.68046 11.3914C2.6262 11.3471 2.00763 12.343 1.30225 13.6154Z" fill="url(#paint1_linear_1130_61)"/>
<defs>
<linearGradient id="paint0_linear_1130_61" x1="2.32024" y1="28.0886" x2="25.3495" y2="4.44706" gradientUnits="userSpaceOnUse">
<stop stop-color="#FFFBEA"/>
<stop offset="0.0001" stop-color="#6229AA"/>
<stop offset="1" stop-color="#2453C9"/>
</linearGradient>
<linearGradient id="paint1_linear_1130_61" x1="-0.285076" y1="20.6433" x2="6.80113" y2="17.0946" gradientUnits="userSpaceOnUse">
<stop stop-color="#FFFBEA"/>
<stop offset="0.0001" stop-color="#6229AA"/>
<stop offset="1" stop-color="#2453C9"/>
</linearGradient>
</defs>
</svg>
