<svg width="36" height="36" viewBox="0 0 36 36" fill="none" xmlns="http://www.w3.org/2000/svg">
<rect x="0.5" y="0.5" width="35" height="35" rx="17.5" stroke="#222222"/>
<mask id="path-2-inside-1_1206_1283" fill="white">
<path fill-rule="evenodd" clip-rule="evenodd" d="M23.6 18.8H21.2C19.8743 18.8 18.8 19.8744 18.8 21.2V23.6C18.8 24.9256 19.8743 26 21.2 26H23.6C24.9257 26 26 24.9256 26 23.6V21.2C26 19.8744 24.9257 18.8 23.6 18.8ZM14.8 18.8H12.4C11.0743 18.8 10 19.8744 10 21.2V23.6C10 24.9256 11.0743 26 12.4 26H14.8C16.1257 26 17.2 24.9256 17.2 23.6V21.2C17.2 19.8744 16.1257 18.8 14.8 18.8ZM23.6 10H21.2C19.8743 10 18.8 11.0744 18.8 12.4V14.8C18.8 16.1256 19.8743 17.2 21.2 17.2H23.6C24.9257 17.2 26 16.1256 26 14.8V12.4C26 11.0744 24.9257 10 23.6 10V10ZM17.2 12.4V14.8C17.2 16.1256 16.1257 17.2 14.8 17.2H12.4C11.0743 17.2 10 16.1256 10 14.8V12.4C10 11.0744 11.0743 10 12.4 10H14.8C16.1257 10 17.2 11.0744 17.2 12.4"/>
</mask>
<path d="M23.6 17.8H21.2V19.8H23.6V17.8ZM21.2 17.8C19.322 17.8 17.8 19.3221 17.8 21.2H19.8C19.8 20.4267 20.4266 19.8 21.2 19.8V17.8ZM17.8 21.2V23.6H19.8V21.2H17.8ZM17.8 23.6C17.8 25.4779 19.322 27 21.2 27V25C20.4266 25 19.8 24.3733 19.8 23.6H17.8ZM21.2 27H23.6V25H21.2V27ZM23.6 27C25.478 27 27 25.4779 27 23.6H25C25 24.3733 24.3734 25 23.6 25V27ZM27 23.6V21.2H25V23.6H27ZM27 21.2C27 19.3221 25.478 17.8 23.6 17.8V19.8C24.3734 19.8 25 20.4267 25 21.2H27ZM14.8 17.8H12.4V19.8H14.8V17.8ZM12.4 17.8C10.522 17.8 9 19.3221 9 21.2H11C11 20.4267 11.6266 19.8 12.4 19.8V17.8ZM9 21.2V23.6H11V21.2H9ZM9 23.6C9 25.4779 10.522 27 12.4 27V25C11.6266 25 11 24.3733 11 23.6H9ZM12.4 27H14.8V25H12.4V27ZM14.8 27C16.678 27 18.2 25.4779 18.2 23.6H16.2C16.2 24.3733 15.5734 25 14.8 25V27ZM18.2 23.6V21.2H16.2V23.6H18.2ZM18.2 21.2C18.2 19.3221 16.678 17.8 14.8 17.8V19.8C15.5734 19.8 16.2 20.4267 16.2 21.2H18.2ZM23.6 9H21.2V11H23.6V9ZM21.2 9C19.322 9 17.8 10.5221 17.8 12.4H19.8C19.8 11.6267 20.4266 11 21.2 11V9ZM17.8 12.4V14.8H19.8V12.4H17.8ZM17.8 14.8C17.8 16.6779 19.322 18.2 21.2 18.2V16.2C20.4266 16.2 19.8 15.5733 19.8 14.8H17.8ZM21.2 18.2H23.6V16.2H21.2V18.2ZM23.6 18.2C25.478 18.2 27 16.6779 27 14.8H25C25 15.5733 24.3734 16.2 23.6 16.2V18.2ZM27 14.8V12.4H25V14.8H27ZM27 12.4C27 10.5221 25.478 9 23.6 9V11C24.3734 11 25 11.6267 25 12.4H27ZM16.2 12.4V14.8H18.2V12.4H16.2ZM16.2 14.8C16.2 15.5733 15.5734 16.2 14.8 16.2V18.2C16.678 18.2 18.2 16.6779 18.2 14.8H16.2ZM14.8 16.2H12.4V18.2H14.8V16.2ZM12.4 16.2C11.6266 16.2 11 15.5733 11 14.8H9C9 16.6779 10.522 18.2 12.4 18.2V16.2ZM11 14.8V12.4H9V14.8H11ZM11 12.4C11 11.6267 11.6266 11 12.4 11V9C10.522 9 9 10.5221 9 12.4H11ZM12.4 11H14.8V9H12.4V11ZM14.8 11C15.5734 11 16.2 11.6267 16.2 12.4H18.2C18.2 10.5221 16.678 9 14.8 9V11Z" fill="#222222" mask="url(#path-2-inside-1_1206_1283)"/>
</svg>
