<svg width="16" height="17" viewBox="0 0 16 17" fill="none" xmlns="http://www.w3.org/2000/svg">
<path d="M9.41329 9.74668C9.23019 9.94318 9.00939 10.1008 8.76406 10.2101C8.51873 10.3194 8.25389 10.3782 7.98535 10.3829C7.71681 10.3877 7.45007 10.3383 7.20103 10.2377C6.952 10.1371 6.72577 9.98737 6.53586 9.79745C6.34594 9.60754 6.19622 9.38131 6.09563 9.13228C5.99504 8.88324 5.94564 8.6165 5.95038 8.34796C5.95512 8.07942 6.0139 7.81458 6.12321 7.56925C6.23252 7.32392 6.39013 7.10312 6.58663 6.92002M11.96 12.2934C10.8204 13.162 9.4327 13.6433 7.99996 13.6667C3.33329 13.6667 0.666626 8.33335 0.666626 8.33335C1.49589 6.78795 2.64605 5.43776 4.03996 4.37335L11.96 12.2934ZM6.59996 3.16002C7.05885 3.0526 7.52867 2.99891 7.99996 3.00002C12.6666 3.00002 15.3333 8.33335 15.3333 8.33335C14.9286 9.09042 14.446 9.80317 13.8933 10.46L6.59996 3.16002Z" stroke="#626A80" stroke-linecap="round" stroke-linejoin="round"/>
<path d="M0.666626 1L15.3333 15.6667" stroke="#626A80" stroke-linecap="round" stroke-linejoin="round"/>
</svg>
