<svg width="20" height="20" viewBox="0 0 20 20" fill="none" xmlns="http://www.w3.org/2000/svg">
<path d="M13.5999 8.2002C13.5999 9.15497 13.2206 10.0706 12.5455 10.7458C11.8704 11.4209 10.9547 11.8002 9.9999 11.8002C9.04512 11.8002 8.12945 11.4209 7.45432 10.7458C6.77919 10.0706 6.3999 9.15497 6.3999 8.2002" stroke="#314BC3" stroke-width="1.2" stroke-linecap="round" stroke-linejoin="round"/>
<path d="M1 4.6001H19" stroke="#314BC3" stroke-width="1.2" stroke-linecap="round" stroke-linejoin="round"/>
<path d="M4 1L1 4.6V17.2C1 17.6774 1.21071 18.1352 1.58579 18.4728C1.96086 18.8104 2.46957 19 3 19H17C17.5304 19 18.0391 18.8104 18.4142 18.4728C18.7893 18.1352 19 17.6774 19 17.2V4.6L16 1H4Z" stroke="#314BC3" stroke-width="1.2" stroke-linecap="round" stroke-linejoin="round"/>
</svg>
