<svg width="18" height="20" viewBox="0 0 18 20" fill="none" xmlns="http://www.w3.org/2000/svg">
<path d="M3.66667 1L1 4.55556V17C1 17.4715 1.1873 17.9237 1.5207 18.2571C1.8541 18.5905 2.30628 18.7778 2.77778 18.7778H15.2222C15.6937 18.7778 16.1459 18.5905 16.4793 18.2571C16.8127 17.9237 17 17.4715 17 17V4.55556L14.3333 1H3.66667Z" stroke="white" stroke-width="1.2" stroke-linecap="round" stroke-linejoin="round"/>
<path d="M1 4.55566H17" stroke="white" stroke-width="1.2" stroke-linecap="round" stroke-linejoin="round"/>
<path d="M12.5554 8.1123C12.5554 9.0553 12.1808 9.95967 11.514 10.6265C10.8473 11.2933 9.94288 11.6679 8.99989 11.6679C8.0569 11.6679 7.15253 11.2933 6.48573 10.6265C5.81894 9.95967 5.44434 9.0553 5.44434 8.1123" stroke="white" stroke-width="1.2" stroke-linecap="round" stroke-linejoin="round"/>
</svg>
