<svg width="18" height="22" viewBox="0 0 18 22" fill="none" xmlns="http://www.w3.org/2000/svg">
<path d="M15 1H3C1.89543 1 1 1.89543 1 3V19C1 20.1046 1.89543 21 3 21H15C16.1046 21 17 20.1046 17 19V3C17 1.89543 16.1046 1 15 1Z" stroke="#314BC3" stroke-width="1.2" stroke-linecap="round" stroke-linejoin="round"/>
<path d="M9 17C11.2091 17 13 15.2091 13 13C13 10.7909 11.2091 9 9 9C6.79086 9 5 10.7909 5 13C5 15.2091 6.79086 17 9 17Z" stroke="#314BC3" stroke-width="1.2" stroke-linecap="round" stroke-linejoin="round"/>
<path d="M9 5H9.01" stroke="#314BC3" stroke-width="1.2" stroke-linecap="round" stroke-linejoin="round"/>
</svg>
